<svg width="94" height="92" viewBox="0 0 94 92" fill="none" xmlns="http://www.w3.org/2000/svg">
<path d="M16.6962 53.9468C15.5743 53.3856 14.2601 52.8427 13.0421 52.2907C12.4377 52.0619 11.9294 51.824 11.4119 51.4917C9.34165 50.1622 7.61872 48.4183 6.26164 46.4489C4.78992 44.2997 4.16452 41.8795 3.35619 39.572C3.21375 39.1087 3.15813 38.5418 3.10251 37.9749C3.09415 34.9239 3.57554 31.9219 4.55594 29.0633C5.25393 27.2805 6.15339 25.5739 7.36894 24.1235C8.3923 22.6913 9.62639 21.4298 10.9751 20.3483C11.158 20.2355 11.3224 19.9338 11.5146 19.9156C12.9189 19.4009 13.8555 18.0723 15.2506 17.4632C16.6456 16.854 18.0407 16.2449 19.4451 15.7302C20.8494 15.2155 22.3684 14.8807 23.9152 14.8293C24.4917 14.7747 25.1459 14.5219 25.7317 14.5617C29.4111 14.4988 33.174 15.2862 36.4437 16.9788C37.8817 17.7961 39.1369 18.726 40.3051 19.7596C41.272 20.7169 42.152 21.7779 42.9359 22.8479C43.8344 24.0978 44.55 25.4604 45.0735 26.8413C45.7115 28.402 45.9745 30.0936 45.9399 31.7181C45.7629 32.8793 45.7873 34.1168 46.0039 35.336C47.9721 35.6261 49.3604 36.9249 50.817 37.9312C52.2736 38.9374 54.1423 40.1907 55.6174 41.3859C58.9613 43.8343 61.9579 46.6972 64.5979 49.8799C65.1525 50.5903 65.8033 51.2915 66.3579 52.0018C67.6686 53.4987 68.7964 55.1083 69.7413 56.8307C69.8745 57.1995 70.0077 57.5683 69.9579 58.0499C69.7253 58.6441 69.1858 59.0768 68.5224 59.2351C66.6283 59.7008 64.7249 60.0721 62.7938 60.1599C62.025 60.2328 61.2562 60.3058 60.4875 60.3787C59.2997 62.1126 58.5242 64.0935 58.2384 66.1233C58.1701 66.4158 58.1979 66.6993 58.1296 66.9919C58.0394 68.0495 57.1526 68.8965 56.0956 68.9968C53.9756 68.1488 52.0015 66.8102 49.9498 65.6697C47.8981 64.5292 46.1162 63.1723 43.8352 61.6721C44.5382 63.8942 44.9933 65.5677 45.5353 67.1375C46.2012 68.9816 46.8671 70.8258 47.4368 72.6791C47.7125 73.5113 47.8052 74.4561 47.8979 75.401C48.1237 76.7147 47.1779 77.9488 45.8326 78.0764C45.7365 78.0855 45.5443 78.1038 45.4482 78.1129C43.6224 78.2861 41.7595 78.0813 39.9742 77.6784C38.285 77.2665 36.5865 76.76 34.6958 76.2718C33.9051 77.1097 32.8168 77.8805 32.4661 79.2489C32.6676 79.3252 32.869 79.4014 32.9651 79.3923C35.6373 78.9481 38.3557 78.9764 40.9191 79.4008C43.1478 79.3801 45.3951 79.5484 47.5648 79.9148C49.8213 80.1776 51.9818 80.4495 54.2198 80.5233C56.1695 80.6245 58.0416 80.9237 59.9323 81.412C60.4314 81.5554 60.9396 81.7932 61.4387 81.9366C62.043 82.1654 62.3869 82.705 62.6348 83.2537C62.9972 83.9822 62.6963 84.8691 61.946 85.131C60.8392 85.7128 59.7139 86.1056 58.4832 86.4131C54.0131 87.3139 49.5244 88.0258 45.008 88.4542C40.6837 88.8644 36.4555 89.2654 32.1127 89.4866C27.2026 89.857 22.2739 90.0384 17.4043 89.8328C15.7521 89.7988 14.1775 89.5666 12.5936 89.24C11.8932 89.0204 11.019 89.0079 10.3278 88.8828C9.54052 88.7667 8.83077 88.4526 8.1303 88.2329C7.21909 87.8425 7.20055 87.6535 7.05223 86.1417C7.70975 84.935 8.68336 83.9843 9.98234 83.3843C14.2173 81.0753 18.8113 80.4488 23.5293 80.0966C23.7805 79.6913 23.4644 79.4352 23.3312 79.0664C22.4453 76.957 21.5594 74.8476 20.7697 72.729C20.3887 71.8115 20.1038 70.8849 19.915 69.9491C19.6706 68.4464 19.1471 67.0656 18.8066 65.572C18.2588 62.9537 17.4134 60.2683 17.4328 57.5008C16.9465 56.4979 17.2011 55.1386 16.6962 53.9468ZM33.5465 53.6836C33.2456 54.5704 32.17 54.4817 31.5529 55.1125L33.1958 55.052L33.1866 54.9575C33.1739 55.817 32.0983 55.7283 31.9027 56.7005C33.5843 61.9769 34.717 67.5914 36.4947 72.8587C37.1454 73.5599 38.0659 74.0448 39.1322 74.039C39.9102 74.0606 40.6975 74.1766 41.3112 74.4999C42.4146 74.8721 43.5862 74.9517 44.7208 74.6533C44.7891 74.3607 44.7613 74.0773 44.7335 73.7938C44.4301 72.6782 44.1174 71.4681 43.7179 70.3616C43.1573 68.6028 42.4046 66.8622 41.8349 65.0089C41.4943 63.5154 40.9709 62.1345 40.3514 60.7628C40.1221 60.4031 39.9797 59.9398 39.9333 59.4673C39.7572 57.6721 39.0045 55.9315 38.9244 54.1271C38.8503 53.3712 38.5747 52.5391 38.2122 51.8105C38.0883 51.5362 37.7815 51.3746 37.5708 51.2038C37.7259 50.8076 38.2839 50.564 37.8439 50.0335L30.9149 53.5517C30.9149 53.5517 30.828 53.6553 30.8466 53.8443L31.3641 54.1767L33.5465 53.6836ZM25.5033 51.7763C28.1939 51.521 30.829 50.6989 33.2347 49.517C34.6205 48.8134 35.7863 47.8445 36.8468 46.7903C38.6204 45.0962 40.1832 43.2313 41.3339 41.1195C41.9821 39.8182 42.4289 38.4407 42.7796 37.0723C43.5088 34.619 43.6336 31.9369 43.1043 29.5076C42.7638 28.014 42.1443 26.6423 41.4286 25.2797C39.9106 22.658 37.6608 20.4873 34.9087 19.1271C32.4633 17.9285 29.68 17.2389 26.9522 17.1162C26.5586 17.0581 26.1742 17.0946 25.7991 17.2255C23.9143 17.7858 21.9831 17.8736 20.1851 18.3302C18.012 18.9178 16.0774 19.9596 14.2668 21.2758C12.3693 22.6955 10.6918 24.3805 9.43577 26.407C7.71781 28.668 6.71886 31.3376 6.30576 34.0471C6.06631 36.5493 5.72149 38.9662 6.92346 41.3317C6.93273 41.4262 6.942 41.5207 7.0381 41.5116C7.87423 44.1025 9.46059 46.4316 11.5772 48.2335C12.5069 48.8129 13.4367 49.3923 14.3571 49.8771C16.7434 51.4628 19.4029 51.8781 22.236 52.0862C23.5038 52.1566 24.6013 51.4803 25.5033 51.7763ZM31.3358 75.6368C30.9548 74.7193 30.5831 73.8963 30.3075 73.0641C30.0319 72.232 29.9392 71.2871 29.7596 70.4458C29.0601 67.2697 28.3605 64.0936 27.661 60.9175C27.3853 60.0854 27.119 59.3477 26.8434 58.5155C26.6048 58.0613 25.6902 58.6249 25.7122 57.8599L26.6175 57.2018L25.9575 56.4061C25.0834 56.3937 24.1688 56.9573 23.3444 56.4633C23.9336 55.5491 25.1609 56.1956 25.9516 55.3577L24.1165 55.4364C22.5883 55.6767 21.0322 55.6335 19.5537 55.3923C19.4576 55.4014 19.2747 55.5141 19.0918 55.6269L19.9996 56.9713L19.6616 57.4801C19.804 57.9435 19.9465 58.4068 20.0889 58.8701C20.3923 59.9857 20.5997 61.1105 20.8938 62.1316C21.3953 64.2774 21.9836 66.3197 22.7642 68.3437C22.8881 68.6181 22.9159 68.9016 22.953 69.2795C23.1603 70.4042 23.4637 71.5198 24.1423 72.5045C24.3715 72.8642 24.6101 73.3184 24.7433 73.6873C25.6291 75.7967 26.5057 77.8116 27.3916 79.921C27.5062 80.1008 27.7262 80.3661 27.9277 80.4423L31.3358 75.6368ZM65.9287 56.5247C65.7399 55.589 65.176 54.7842 64.5346 54.1774C62.9077 52.4244 61.2902 50.7659 59.8463 48.9002C59.2824 48.0953 58.5356 47.4033 57.798 46.8056C56.1122 45.4397 54.5224 44.0646 52.8458 42.7932C51.5907 41.8632 50.2488 41.0368 49.0029 40.2013C48.4449 40.445 48.7205 41.2771 48.0293 41.152C47.8093 40.8867 48.4449 40.445 47.6576 40.3289L47.1054 41.6211C47.5547 42.246 47.5547 42.246 47.666 43.3798C52.243 47.5233 55.924 52.4193 60.0762 57.1752C61.7781 56.7277 63.7371 56.9233 65.9287 56.5247ZM41.2536 50.1869C42.2034 55.9142 42.2034 55.9142 43.0522 57.6456C47.0502 59.8413 50.9707 62.2351 55.1516 64.318C55.8091 63.1112 56.2652 61.8282 56.6159 60.4598C56.1944 60.1183 55.9651 59.7586 55.553 59.5116C53.9725 58.231 52.3827 56.856 50.7154 55.679C49.9871 55.1759 49.5101 54.2674 48.8779 53.7552C46.9998 52.4075 45.3047 50.947 43.6872 49.2885C43.3711 49.0324 43.0642 48.8708 42.7574 48.7091L41.2536 50.1869ZM43.7403 47.853C45.9622 49.7403 48.1934 51.7221 50.4061 53.5149C52.6188 55.3077 54.8685 57.4785 57.3788 59.3384L58.768 57.6808C56.1094 54.309 52.9299 51.5589 50.2806 48.2816C49.4006 47.2207 48.4338 46.2634 47.3802 45.4097C47.0548 45.0591 46.7387 44.8029 46.3265 44.5559C45.4675 45.6864 44.5993 46.7225 43.7403 47.853ZM28.4804 57.4066C28.4306 57.8881 28.3902 58.4642 28.4365 58.9366C29.1302 61.0642 29.641 63.3046 30.0464 65.4596C30.3371 67.4347 30.8108 69.2971 31.1016 71.2722C31.3182 72.4914 31.6309 73.7015 32.0397 74.9025C32.4738 74.3845 32.9172 73.961 33.4567 73.5283C34.0055 73.1902 34.6503 72.8429 35.2083 72.5992C34.6849 71.2184 34.0654 69.8467 33.7434 68.5421C33.0312 66.2255 32.5111 63.8906 31.895 61.5649C31.573 60.2603 31.155 58.9649 30.7369 57.6694C30.7276 57.5749 30.5262 57.4986 30.4115 57.3188C30.114 57.2516 29.6521 57.4862 29.4042 56.9375C29.6647 56.6267 29.9345 56.4104 30.3686 55.8924C29.3115 55.9926 28.6203 55.8675 27.994 56.4037C27.656 56.9126 28.2511 57.0469 28.4804 57.4066ZM27.334 55.608L29.7769 54.8041L29.712 54.1427L27.8179 54.6084C27.5979 54.3432 27.8306 53.7489 27.2911 54.1816L27.334 55.608ZM23.878 54.9821L23.9555 54.7841L21.9966 54.5884L21.9468 55.07L23.878 54.9821ZM46.8332 39.8349C46.92 39.7313 46.9015 39.5423 46.8922 39.4479C46.883 39.3534 46.7683 39.1735 46.7591 39.079C46.6722 39.1826 46.6908 39.3716 46.7 39.4661C46.7093 39.5606 46.824 39.7404 46.8332 39.8349Z" fill="black"/>
<path d="M54.4652 28.9149C54.1457 29.6128 53.2033 29.8929 52.5804 29.4751C52.0721 29.2373 51.7189 28.6032 51.8555 28.018C51.7906 27.3566 52.2247 26.8386 52.7828 26.595C53.7901 26.9762 54.4593 27.8664 54.4652 28.9149Z" fill="black"/>
<path d="M8.12562 61.454C7.80613 62.1518 6.86372 62.432 6.2408 62.0142C5.73251 61.7763 5.37934 61.1422 5.51591 60.5571C5.45102 59.8957 5.88514 59.3777 6.44317 59.134C7.45047 59.5153 8.11975 60.4055 8.12562 61.454Z" fill="black"/>
<path d="M62.2061 26.7502C62.7793 27.6495 62.3452 28.1675 61.5174 28.6275L60.5969 28.1426C60.6652 27.85 60.7335 27.5575 60.8979 27.2558C61.1305 26.6615 61.5149 26.6251 62.2061 26.7502Z" fill="black"/>
<path d="M35.0464 34.3727C33.9835 33.4245 32.7377 32.589 31.4143 31.9516C31.4025 29.8546 32.2742 27.8646 32.2624 25.7677C31.2956 24.8103 29.8264 24.6636 28.7288 25.3399C28.2576 25.48 27.8421 26.187 27.4484 26.1289C26.9679 26.1745 26.5928 26.3055 26.227 26.5309C25.8611 26.7563 25.486 26.8873 25.1109 27.0182C24.7358 27.1492 24.2646 27.2892 23.8895 27.4202C22.4793 26.8864 21.4163 25.9382 19.8325 25.6116L18.735 26.2879C18.257 28.3359 19.0189 30.171 19.598 32.1187C19.018 33.1274 18.4288 34.0416 17.8488 35.0503C17.4332 35.7573 17.0269 36.5587 16.7074 37.2566C16.2143 38.1617 16.5085 39.1828 17.3421 39.7713C18.1109 39.6984 18.8889 39.7199 19.6577 39.647C20.4264 39.5741 21.3781 39.3885 22.243 39.3064C22.7293 40.3093 23.3025 41.2086 23.702 42.3151C24.1108 43.5161 24.8854 44.4917 25.9206 45.1564L27.0552 44.8581C27.62 42.7064 28.2902 40.6402 28.8642 38.583C29.1433 38.4612 29.4223 38.3393 29.6052 38.2266C30.5476 37.9465 31.49 37.6664 32.4324 37.3863C33.2787 37.1153 34.1065 36.6553 34.8197 36.0154C35.167 35.601 35.2943 34.9214 35.0464 34.3727ZM26.8994 37.3389C26.5487 38.7073 26.198 40.0757 25.838 41.3496C25.3668 41.4897 25.2337 41.1208 25.0229 40.9501C24.6605 40.2215 24.298 39.493 23.9263 38.6699C23.6692 38.0268 23.1331 37.5054 22.4327 37.2857C21.9522 37.3313 21.2888 37.4896 20.7215 37.6388C20.1542 37.788 19.5683 37.7482 19.0879 37.7937C18.781 37.6321 18.6386 37.1688 18.8991 36.858C19.2 35.9711 19.5971 35.0752 19.9941 34.1792C20.3043 33.3869 20.6146 32.5945 20.8287 31.8113C21.0613 31.217 20.9872 30.4611 20.6433 29.9215C20.3862 29.2783 20.2252 28.626 20.2471 27.861C21.6666 28.4893 22.9808 29.0322 24.1988 29.5843C25.9504 28.6552 27.8167 27.906 29.6923 27.2512C29.7884 27.2421 29.8937 27.3275 30.1045 27.4982C30.0884 29.3117 29.1982 31.1127 29.4797 32.9934L32.3836 34.9114C30.5544 36.0385 28.5271 36.1355 26.8994 37.3389Z" fill="#FD5444"/>
<path d="M14.696 46.4119C14.2839 46.1648 13.8624 45.8234 13.5278 45.3783C12.8492 44.3936 11.9009 43.6252 11.1263 42.6497C10.1131 41.2199 9.46578 39.5647 9.29892 37.864C8.95253 35.3219 9.3749 32.707 10.6031 30.3971C11.087 29.3975 11.667 28.3888 12.1508 27.3893C12.3152 27.0876 12.4888 26.8803 12.6625 26.6731C12.9322 26.4568 13.1152 26.3441 13.3849 26.1278C13.701 26.3839 13.7474 26.8563 13.4869 27.1672C12.7703 28.761 12.0538 30.3548 11.4426 32.034C10.7042 34.3928 10.5701 36.9805 11.1955 39.4007C11.4121 40.6199 12.0038 41.7082 12.8653 42.5801C13.736 43.5466 14.6067 44.513 15.4867 45.5739L14.696 46.4119Z" fill="black"/>
<path d="M37.6345 25.1628C37.6438 25.2573 37.5477 25.2664 37.4608 25.37C37.3647 25.3791 37.1818 25.4918 36.9896 25.5101C36.2243 24.629 35.3628 23.7571 34.5013 22.8851C33.3145 21.6625 31.7711 20.7599 29.9951 20.4515C27.4131 19.8381 24.961 20.5476 22.4904 21.068C21.2504 21.281 20.0382 21.7774 18.7207 22.1885C18.3363 22.225 17.952 22.2614 17.4715 22.307C17.6266 21.9108 17.6949 21.6183 17.8871 21.6C18.8109 21.1309 19.8309 20.6527 20.764 20.2781C20.947 20.1654 21.2445 20.2325 21.4274 20.1198C23.6596 19.1451 26.1395 18.7192 28.4829 18.8784C31.1052 18.9157 33.5413 20.0198 35.0998 22.0654C36.1535 22.9191 36.9374 23.9892 37.6345 25.1628Z" fill="black"/>
<path d="M35.6759 43.754C35.3412 43.3089 35.2856 42.742 35.6329 42.3276C36.368 40.9227 37.1031 39.5179 38.0396 38.1893C39.0537 36.6626 39.8663 35.0596 39.4887 33.1881L40.1243 32.7464C41.0136 33.9018 40.9419 35.1483 40.6873 36.5076C39.2762 38.9303 37.989 41.6273 35.6759 43.754Z" fill="black"/>
<path d="M38.2321 27.2997L37.6682 26.4949C38.3409 26.4311 38.3409 26.4311 38.2321 27.2997Z" fill="black"/>
<path d="M34.6 54.5374C35.2946 53.7086 36.3053 53.1359 37.3531 52.9411C36.6677 53.8645 35.657 54.4372 34.6 54.5374Z" fill="black"/>
<path d="M33.5465 53.6836C34.0674 53.0619 34.7991 52.6111 35.5679 52.5382C35.1523 53.2451 34.3245 53.7051 33.4411 53.5982L33.5465 53.6836Z" fill="black"/>
<path d="M33.205 55.1465C33.4284 54.4578 34.1289 54.6774 34.6001 54.5374L34.5908 54.4429C34.3674 55.1316 33.7816 55.0918 33.205 55.1465Z" fill="black"/>
<path d="M24.9896 58.4055C24.2579 58.8564 23.3931 58.9384 22.6833 58.6243C23.4335 58.3624 24.1745 58.006 24.9896 58.4055Z" fill="black"/>
<path d="M32.0891 44.7622C32.1076 44.9512 32.1355 45.2347 32.0579 45.4327C31.6609 46.3287 30.957 47.063 29.9277 47.4468C27.9654 48.2051 25.9937 48.8689 24.0035 49.3438C22.2055 49.8005 20.2373 49.5103 18.6071 48.7113C17.7827 48.2173 16.8715 47.8269 15.8456 47.2566L16.348 46.446C16.5402 46.4278 16.7232 46.3151 16.8285 46.4005C17.3368 46.6384 17.8451 46.8762 18.2573 47.1232C20.4143 48.3491 22.7299 48.2249 24.9991 47.6282C25.2874 47.6008 25.4517 47.2991 25.8083 46.9792L25.703 46.8938L27.0297 46.5772L26.9429 46.6809C27.2497 46.8425 27.7302 46.7969 28 46.5806L31.2335 44.9387C31.6179 44.9023 31.8969 44.7804 32.0891 44.7622Z" fill="black"/>
<path d="M24.2982 28.6212L19.8568 26.849L20.2833 31.1954L17.6927 38.4029L23.3033 38.2522L25.8034 42.9741L28.7159 37.0712L33.9211 34.7655L29.8582 31.9085L30.7029 26.6785L30.2039 26.5351L24.2982 28.6212Z" fill="#FD5444"/>
</svg>
