<svg width="13" height="12" viewBox="0 0 13 12" fill="none" xmlns="http://www.w3.org/2000/svg">
<path d="M0.176797 10.3748L2.70843 8.03828C2.82269 7.93282 2.97759 7.87423 3.1401 7.87423L3.554 7.87423C2.85316 7.04697 2.43673 6.00644 2.43673 4.87452C2.43673 2.18182 4.80077 -1.6383e-09 7.71836 -1.05533e-09C10.636 -4.72362e-10 13 2.18182 13 4.87452C13 7.56723 10.636 9.74905 7.71836 9.74905C6.49191 9.74905 5.36448 9.36471 4.46813 8.7179L4.46813 9.09989C4.46813 9.24988 4.40464 9.39283 4.29038 9.49829L1.75875 11.8348C1.52006 12.0551 1.13409 12.0551 0.897943 11.8348L0.179336 11.1716C-0.0593538 10.9513 -0.0593538 10.5951 0.176797 10.3748ZM7.71836 7.87423C9.51361 7.87423 10.9686 6.53374 10.9686 4.87452C10.9686 3.21765 9.51615 1.87482 7.71836 1.87482C5.92312 1.87482 4.46813 3.21531 4.46813 4.87452C4.46813 6.53139 5.92058 7.87423 7.71836 7.87423Z" fill="#E31E25"/>
</svg>
