<svg width="4" height="4" viewBox="0 0 4 4" fill="none" xmlns="http://www.w3.org/2000/svg">
<path d="M1.76406 0C0.78956 0 0 0.71642 0 1.60065C0 2.48488 0.78956 3.2013 1.76406 3.2013C2.73856 3.2013 3.52812 2.48488 3.52812 1.60065C3.52812 0.71642 2.73856 0 1.76406 0ZM3.18669 1.60065C3.18669 1.74587 3.15895 1.88593 3.10987 2.0163H2.96547C2.93489 2.0163 2.90572 2.00533 2.88438 1.98532L2.65676 1.77492C2.62475 1.74523 2.62475 1.69682 2.65747 1.66713L2.74639 1.58645V1.5303C2.74639 1.51094 2.73785 1.49222 2.72292 1.47867L2.65605 1.418C2.64111 1.40444 2.62049 1.3967 2.59915 1.3967H2.48534C2.44123 1.3967 2.40496 1.36378 2.40496 1.32376C2.40496 1.3044 2.41349 1.28568 2.42843 1.27213L2.49529 1.21146C2.51023 1.19791 2.53086 1.19016 2.5522 1.19016H2.77982C2.82392 1.19016 2.8602 1.15724 2.8602 1.11723V1.05656C2.8602 1.01654 2.82392 0.983626 2.77982 0.983626H2.51877C2.45617 0.983626 2.40496 1.0301 2.40496 1.08689V1.11594C2.40496 1.16047 2.37366 1.19984 2.32742 1.21404L2.10265 1.28181C2.07918 1.28891 2.06353 1.30827 2.06353 1.33086V1.34506C2.06353 1.37346 2.03792 1.3967 2.00662 1.3967H1.89281C1.86151 1.3967 1.83591 1.37346 1.83591 1.34506C1.83591 1.31666 1.8103 1.29343 1.779 1.29343H1.75695C1.73561 1.29343 1.71569 1.3044 1.70573 1.32183L1.63887 1.44252C1.61967 1.47737 1.58054 1.49932 1.53715 1.49932H1.37995C1.31736 1.49932 1.26614 1.45285 1.26614 1.39605V1.23276C1.26614 1.20565 1.27823 1.17919 1.29957 1.15983L1.44255 1.0301C1.47527 1.00041 1.49376 0.959745 1.49376 0.917147C1.49376 0.895203 1.50941 0.875195 1.53288 0.868095L1.81741 0.782254C1.8295 0.778381 1.84017 0.772572 1.84871 0.764827L2.03934 0.591854C2.05428 0.5783 2.06281 0.559582 2.06281 0.54022C2.06281 0.500203 2.02654 0.467287 1.98244 0.467287H1.83519L1.72138 0.570555V0.622189C1.72138 0.650587 1.69578 0.673822 1.66448 0.673822H1.55067C1.51937 0.673822 1.49376 0.650587 1.49376 0.622189V0.493104C1.49376 0.476968 1.5023 0.461478 1.51652 0.451797L1.72209 0.31174C1.73561 0.311094 1.74912 0.309803 1.76264 0.309803C2.54864 0.309803 3.18669 0.888748 3.18669 1.60065ZM0.925421 0.910693C0.925421 0.89133 0.933957 0.872613 0.948895 0.859059L1.12957 0.695121C1.14451 0.681567 1.16513 0.673822 1.18647 0.673822C1.23058 0.673822 1.26685 0.706739 1.26685 0.746755V0.850023C1.26685 0.869386 1.25832 0.888103 1.24338 0.901657L1.17652 0.962327C1.16158 0.975881 1.14095 0.983626 1.11961 0.983626H1.0058C0.961699 0.983626 0.925421 0.950709 0.925421 0.910693ZM1.83591 2.88827V2.84245C1.83591 2.78565 1.78469 2.73918 1.72209 2.73918H1.57841C1.50159 2.73918 1.38849 2.70497 1.3266 2.66302L1.16869 2.55523C1.08689 2.49973 1.03923 2.41259 1.03923 2.3203V2.16604C1.03923 2.06277 1.09898 1.96725 1.19643 1.91433L1.50159 1.74845C1.55209 1.72135 1.60971 1.7065 1.66803 1.7065H1.88997C1.9675 1.7065 2.04219 1.73167 2.10051 1.77685L2.4078 2.0163H2.53797C2.59844 2.0163 2.65605 2.03825 2.69873 2.07697L2.82179 2.18863C2.84597 2.21058 2.87941 2.22284 2.91355 2.22284H3.00886C2.7784 2.60299 2.34165 2.86504 1.83591 2.88827Z" fill="#E31E25"/>
</svg>
