<svg width="92" height="92" viewBox="0 0 92 92" fill="none" xmlns="http://www.w3.org/2000/svg">
<path d="M49.7179 50.9283C47.9098 45.9532 42.3379 43.3517 37.3627 45.1598C32.3876 46.9679 29.7862 52.5399 31.5943 57.515C33.4024 62.4901 38.9743 65.0916 43.9494 63.2834C48.9245 61.4753 51.526 55.9034 49.7179 50.9283ZM37.9989 55.4891C37.5145 54.1564 38.1609 52.6141 39.5824 52.0975C41.0038 51.5809 42.4574 52.2595 42.974 53.681C43.4583 55.0136 42.8119 56.556 41.3905 57.0726C40.0256 57.4681 38.4832 56.8217 37.9989 55.4891Z" fill="#FD5444"/>
<path d="M76.6252 46.9576C76.3416 45.5397 75.9635 44.1218 75.4909 42.7984C74.7347 40.1517 73.4113 37.5995 71.7098 35.4254C71.3317 34.9527 71.0481 34.4801 70.7646 33.9129C69.8193 32.4005 68.5904 30.9826 67.2671 29.8483C66.3218 29.0921 65.3765 28.3359 64.4313 27.5796C62.0681 25.7836 59.5159 24.3657 56.7746 23.2314C55.3567 22.5697 53.7497 22.2862 52.2373 21.8135C49.4015 21.0573 46.4712 20.6792 43.5409 20.6792C41.5558 20.6792 39.6653 20.7737 37.6802 21.1518C35.8842 21.3409 34.0882 21.4354 32.4813 22.2862C32.2922 22.3807 32.0086 22.3807 31.8196 22.4752C29.2673 23.3259 26.9042 24.3657 24.541 25.5946C21.8943 27.107 19.4366 28.903 17.2625 30.9826C14.4267 33.5348 12.158 36.5597 10.2675 39.8681C9.60581 40.9079 8.94413 42.0422 8.47149 43.2711C7.52623 46.0123 6.39191 48.6591 6.10833 51.4949C5.91927 53.669 5.16306 55.8431 5.73022 58.0172C5.44664 58.5844 5.82473 59.1516 5.82473 59.8132C6.01378 62.8381 6.67547 65.7684 7.80979 68.6042C7.90432 68.9823 8.52781 70.6953 9.32223 71.7236L11.7799 71.1564C10.9292 69.9276 9.41674 65.9575 9.13316 64.5396C7.99884 60.664 7.8098 56.5993 8.37696 52.6292C8.47149 51.684 8.66054 50.6442 8.84959 49.6989C9.13317 48.8481 9.13317 47.9029 8.84959 46.9576C9.79486 46.3905 10.4565 45.3507 10.5511 44.2163C12.4416 39.8681 15.2774 35.898 18.7749 32.7786C21.9888 29.8483 25.7699 27.4851 29.74 25.7836C31.8196 24.9329 33.9937 24.3657 36.2623 23.8931C37.3966 24.0822 38.4364 23.515 39.5708 23.4205C40.7051 23.3259 41.8394 23.1369 42.9737 23.0424C43.3518 23.0424 43.7299 23.0424 44.108 23.0424C47.2274 23.4205 50.3468 23.8931 53.4662 24.7438C55.6403 25.4055 57.7199 26.3508 59.6104 27.4851C62.6353 29.0921 65.282 31.2662 67.4561 33.9129C69.9138 36.9378 72.1825 40.2462 73.2223 44.0273C73.8839 45.8233 74.262 47.6193 74.4511 49.5098C74.6401 50.1715 74.6401 50.9277 74.5456 51.5894C74.3566 52.2511 74.9237 53.0073 74.7347 53.7635C74.5456 54.5197 74.4511 55.276 74.5456 56.0322C74.5456 56.6939 74.4511 57.3555 74.1675 58.0172C73.9785 58.868 73.7894 59.8132 73.6004 60.664C72.7496 64.3505 71.1427 67.848 69.0631 70.9674C67.4561 73.3306 65.6601 75.5992 63.5805 77.5843C61.69 79.3803 59.5159 80.9872 57.2473 82.2161C56.9637 82.4051 56.6801 82.4051 56.3965 82.5942C53.0881 84.6738 49.307 85.5245 45.5259 86.1862C42.5011 86.6588 39.4762 86.7533 36.5459 86.5643C34.3718 86.4698 32.1977 86.0917 30.1181 85.43C28.8892 84.9573 27.5659 84.5792 26.337 84.1066C22.9341 82.7832 19.9092 80.7982 17.357 78.2459C16.8844 77.8678 16.5063 77.3952 16.0336 77.0171C14.9938 76.0718 14.0485 74.9375 13.3869 73.6141C12.9142 72.7634 12.3471 72.0072 11.7799 71.1564C11.969 70.8729 11.0037 71.5118 11.1928 71.2282C11.4764 71.0392 10.1194 71.5469 10.4975 71.4524L9.32223 71.6291V71.8181C10.7401 73.236 11.3073 74.9375 12.4416 76.3554C14.6157 79.0022 17.2625 81.3653 20.1928 83.1613C21.1381 83.7285 22.0833 84.3902 22.9341 85.1464C22.4614 85.43 21.8943 85.619 21.3271 85.7135C20.0983 85.9971 18.8694 86.4698 17.8296 87.226C16.8844 87.6986 16.4117 88.7384 16.6008 89.7782C17.0734 90.1563 17.546 90.5344 18.1132 90.7235C20.3818 91.1016 22.745 91.3851 25.0137 91.6687C25.8644 91.8578 26.8097 91.7633 27.7549 91.5742C28.7002 91.3852 29.5509 91.6687 30.4017 91.6687C32.1031 91.5742 33.8991 91.6687 35.6006 91.6687H38.0583C38.531 91.6687 39.0036 91.6687 39.3817 91.6687C40.516 91.5742 41.5558 91.2906 42.6901 91.2906C43.8244 91.2906 44.9588 91.2906 46.0931 91.1961C48.2672 91.1016 50.4413 90.818 52.6154 90.7235C57.1527 90.4399 61.5955 89.7782 66.0382 88.9275C66.889 88.7384 67.7397 88.3603 68.5905 87.8877C69.4412 87.415 69.7247 86.3752 69.1576 85.5245C69.0631 85.3354 68.874 85.1464 68.7795 85.0519C68.2123 84.5792 67.6452 84.2956 66.9835 84.1066C65.4711 83.7285 63.8641 83.3504 62.3517 83.0668C61.69 83.0668 61.1228 82.7832 60.6502 82.4051C61.9736 81.2708 63.2024 80.1365 64.6203 79.1912C66.6054 77.7733 68.2123 75.9773 69.6302 73.9922C70.2919 73.047 70.8591 72.1017 71.5208 71.1564C73.2222 68.7933 74.5456 66.1465 75.3964 63.3107C76.2471 60.3804 76.8143 57.3555 77.0979 54.2362C77.2869 51.7785 77.0979 49.3208 76.6252 46.9576ZM33.6156 88.7384H36.4514C35.5061 89.1165 34.4663 89.1165 33.6156 88.7384ZM15.4665 68.5097C15.9391 68.9823 16.4117 69.5495 16.6953 70.2112C17.357 72.1017 18.6804 73.5196 19.9092 75.032C21.1381 76.7335 22.8395 78.1514 24.7301 79.0967L24.9191 79.1912C27.5659 81.1763 30.4962 82.4996 33.7101 83.1613C35.5061 83.634 37.3967 83.823 39.2872 83.823C40.8941 83.823 42.4066 83.7285 43.919 83.5394C44.108 83.5394 44.3916 83.5394 44.5807 83.4449C47.1329 82.5942 49.8742 82.1215 52.2373 80.7036C53.7497 79.7584 55.3567 78.9076 56.9637 77.9624C57.3418 77.6788 57.7199 77.3952 58.0035 77.1116C59.4214 75.6937 60.9338 74.2758 62.2572 72.7634C63.8641 70.7783 65.1875 68.6042 66.2273 66.2411C66.889 64.9177 67.3616 63.4053 67.4561 61.8928C67.4561 61.6092 67.6452 61.3257 67.7397 61.0421C67.9287 60.7585 68.0233 60.3804 68.1178 60.0023C68.3069 57.4501 68.7795 54.8979 68.5905 52.3456C68.4014 49.5098 67.8342 46.674 66.7944 44.0273C65.9437 41.7586 64.7149 39.6791 63.297 37.694C62.0681 36.087 60.6502 34.5746 59.1378 33.1567C58.5706 32.6841 57.9089 32.2115 57.3418 31.8333C55.9239 30.9826 54.6005 29.9428 53.0881 29.1866C50.6304 27.9578 47.8891 27.107 45.1478 26.8234C42.4066 26.4453 39.5708 26.5399 36.8295 27.107C33.9937 27.6742 31.2524 28.5249 28.7002 29.8483C26.9987 30.699 25.4863 31.8333 24.0684 33.0622C21.0435 35.5199 18.5859 38.6393 16.6008 42.0422C15.561 44.1218 14.7102 46.2959 13.954 48.47C13.5759 49.5098 13.3869 50.6442 13.2924 51.7785C13.0088 53.8581 12.9142 55.9376 13.0088 58.1118C13.1978 60.0968 13.4814 62.1764 13.954 64.1615C14.1431 64.8232 15.2774 67.659 15.4665 68.5097L18.1132 67.6295C17.9241 67.3459 16.5063 64.256 16.4117 63.9724C13.8595 55.276 15.7501 46.0123 21.3271 38.9228C22.9341 36.9378 24.8246 35.1418 26.8097 33.6294C27.8495 32.8731 28.9838 32.306 30.2126 31.8333C32.2922 30.6045 34.6554 29.8483 37.0185 29.4702C39.2872 29.0921 41.4613 28.9975 43.7299 29.0921C44.2026 29.0921 44.5807 29.0921 45.0533 28.9975C45.904 29.2811 46.8493 29.5647 47.7946 29.8483C51.9538 30.8881 55.6403 33.0622 58.6652 35.9925C59.4214 36.7487 60.1776 37.5049 60.7447 38.3557C63.5805 42.1368 65.282 46.5795 65.9437 51.2113C66.2273 54.1416 66.2273 57.072 65.7547 60.0023C65.4711 61.4202 65.0929 62.7436 64.5258 64.0669C64.3367 64.7286 64.2422 65.3903 64.3368 66.052C63.7696 66.3356 63.2969 66.9027 63.0134 67.4699C62.0681 69.3604 60.9338 71.1564 59.5159 72.7634C58.8542 73.6141 58.098 74.2758 57.3418 75.032C52.8045 79.3803 47.322 81.3653 41.1777 81.7434C34.3718 81.9325 27.7549 79.3803 22.8395 74.5594C20.7599 72.4798 19.0585 69.9276 17.9242 67.1863L15.4665 68.5097ZM58.4761 44.9726C57.5308 43.1765 56.2074 41.5696 54.6005 40.3407C53.4662 38.3557 51.3866 37.5995 49.4961 36.6542C47.0384 35.3308 44.2971 34.5746 41.4613 34.5746C41.1777 34.5746 40.7051 34.4801 40.6106 34.5746C39.8543 35.2363 38.9091 34.4801 38.0583 34.8582C35.3171 34.6691 32.9539 35.9925 30.6853 37.1268C29.74 37.694 28.8892 38.2612 28.0385 38.9228C26.9987 39.5845 26.148 40.4353 25.4863 41.4751C24.6356 42.7039 23.6903 43.8382 22.9341 45.1616C21.7052 47.2412 20.949 49.5098 20.5709 51.9675C20.1928 54.6143 20.3818 57.3555 20.949 60.0023C21.138 60.853 22.2724 64.0669 22.556 65.0122L25.2293 64.1615C24.7567 64.1615 23.5012 60.9476 23.5012 60.4749C23.1231 59.057 22.8395 57.5446 22.6505 56.0322C22.556 54.8033 22.8395 53.669 22.6505 52.4402C22.6505 51.6839 22.8395 50.9277 23.1231 50.266C23.3122 49.5098 23.5958 48.6591 23.9739 47.9029C25.0137 45.1616 26.8097 42.7039 29.0783 40.9079C29.6455 40.5298 30.1181 40.0572 30.6853 39.49C32.6703 38.4502 34.7499 37.694 36.924 37.2214C39.0036 36.7487 41.0832 36.6542 43.1628 37.1268C44.5807 37.4104 45.9986 37.7885 47.322 38.1666C50.5359 39.3955 53.2771 41.4751 55.3567 44.1218C57.0582 46.2959 58.1925 48.7536 58.6652 51.4949C59.1378 53.5745 59.2323 55.6541 58.9487 57.7336C58.8542 58.9625 58.6651 60.0968 58.4761 61.3257C58.0035 62.1764 57.6253 63.1217 57.0582 64.0669C55.7348 66.5246 53.9388 68.6987 51.6702 70.4002C50.4413 71.251 49.118 72.0072 47.7001 72.6689C47.2274 72.9524 46.7548 73.3305 46.2822 73.3305C44.9588 73.236 43.6354 73.7087 42.312 73.6141C41.4613 73.6141 40.6105 73.6141 39.8543 73.5196C37.6802 73.3306 35.5061 72.8579 33.5211 71.9127C31.6305 71.1564 29.929 70.0221 28.5111 68.5097C27.944 67.7535 27.0932 67.3754 26.148 67.2808L26.5261 66.3356C26.0535 65.4848 25.4863 64.6341 25.0137 63.7834L25.2027 63.5943L22.556 65.0122C22.8395 65.1067 23.1231 65.2958 23.5012 65.5794C23.6903 66.9027 24.7301 67.848 25.5808 68.7933C27.7549 71.1564 30.4017 72.9524 33.332 74.1813C36.0733 75.3156 39.0036 75.8828 41.9339 75.6937C43.1628 75.5992 44.2971 75.4101 45.5259 75.1266C48.0781 74.4649 50.5358 73.4251 52.71 71.9127C54.695 70.5893 56.491 68.8878 57.8144 66.8082C59.4213 64.445 60.5557 61.7983 61.0283 58.9625C61.3119 56.5993 61.3119 54.2362 61.1228 51.873L60.0831 51.3058L60.5557 50.4551C60.4612 48.6591 59.7049 46.674 58.4761 44.9726ZM44.3916 62.9326C42.5956 63.6888 40.516 63.6888 38.6255 63.1217C37.0185 62.7436 35.5061 61.9874 34.1827 60.9476C33.8046 60.5695 33.4265 60.1913 33.143 59.7187L30.8743 60.853C31.0633 61.0421 31.2524 61.2311 31.4415 61.4202C33.8046 64.3505 37.4912 65.9575 41.1777 65.7684C42.9737 65.5794 44.7697 65.1067 46.2822 64.1615C48.7398 62.8381 50.5359 60.664 51.4811 58.1118C51.6702 57.6391 51.7647 57.072 51.7647 56.5993C51.8592 56.0322 51.7647 55.5595 51.8592 54.9924C52.0483 52.6292 51.3866 50.266 49.9687 48.47C48.6453 46.5795 46.7548 45.0671 44.4862 44.2163C42.2175 43.2711 39.7598 43.082 37.3967 43.6492C36.924 43.7437 36.4514 43.9328 35.9788 44.2163C35.5061 44.4999 35.0335 44.689 34.5609 44.878C33.5211 45.1616 32.6703 45.7288 32.0086 46.5795C30.4962 48.0919 29.4564 50.077 29.0783 52.2511C28.7002 54.0471 28.7947 55.8431 29.3619 57.5446C29.4564 57.9227 30.8743 60.4749 30.8743 60.853L33.143 59.7187C30.9135 56.8374 30.9688 53.2909 31.6305 51.3058C32.8594 47.9029 37.1131 44.9726 41.4613 45.5397C45.4314 46.1069 48.7398 48.9427 49.7796 52.8183C50.7249 57.072 48.4563 61.3257 44.3916 62.9326ZM38.4364 53.669C38.9091 53.0073 39.6653 52.5347 40.4215 52.3456C41.9339 52.3456 43.0683 53.669 43.0683 55.0869C43.0683 55.0869 43.0683 55.0869 43.0683 55.1814L42.5956 56.1267C41.5734 56.3044 41.0404 56.3044 39.9744 56.3044C39.4414 56.3044 38.9084 56.3044 38.3755 55.7714L37.3967 57.261L38.72 58.1118C40.516 58.4899 42.312 58.0172 43.8245 57.072C44.7697 55.8431 44.8643 54.0471 44.0135 52.7237C43.1628 51.4004 41.6503 50.6442 40.1379 50.8332C37.9638 51.4949 36.735 52.6465 36.735 55.1814L37.1086 56.2488L37.4823 57.3161L38.3755 55.7714C37.9973 55.3933 38.2474 53.8581 38.4364 53.669Z" fill="black"/>
<path d="M77.4759 32.4006C77.7595 33.0623 78.5157 33.5349 79.2719 33.5349C80.9734 32.7787 80.5007 30.5101 82.1077 29.5648C82.3913 31.3608 81.8241 33.2513 80.5007 34.5747C79.1773 34.6692 77.9485 35.0473 76.8142 34.1021C76.058 33.5349 75.7744 32.4951 75.9635 31.6444C76.8142 29.9429 78.1376 28.6195 79.65 27.5797C80.4062 27.0126 81.1624 26.3509 81.9186 25.6892L81.446 23.8932L82.4858 23.6096C82.6748 24.5549 82.9584 25.4056 83.1475 26.2564C81.257 28.4305 78.7047 29.7539 77.4759 32.4006Z" fill="black"/>
<path d="M63.8642 26.2563C63.5806 25.5001 63.4861 24.7439 63.5806 23.9877C63.6751 23.2315 64.3368 22.6643 65.093 22.7588C65.8493 22.9479 66.3219 23.7041 66.2274 24.4603C66.1328 24.933 65.9438 25.4056 65.6602 25.8782C65.2821 26.5399 64.7149 26.729 63.8642 26.2563Z" fill="black"/>
<path d="M4.04873 33.3857C4.89947 34.2365 5.08853 35.5599 4.6159 36.6942C5.37211 36.9778 6.12833 36.9778 6.60096 37.734C6.60096 38.0175 6.41191 38.2066 6.12833 38.3011H6.0338C5.46664 38.3011 4.89949 38.2066 4.33233 38.2066C3.29254 36.9778 3.29252 35.6544 3.198 34.2365C3.198 33.8584 3.38705 33.4803 4.04873 33.3857Z" fill="black"/>
<path d="M42.2091 13.9303C41.2638 14.1194 40.8857 13.5522 40.5076 12.796C40.6021 12.4179 40.6021 11.9453 40.6966 11.4726L41.3583 11C42.1145 11.0945 42.7762 11.6617 42.9653 12.4179C43.0598 13.0796 42.7762 13.6467 42.2091 13.9303Z" fill="black"/>
<path d="M25.7698 11.51L27.1877 11.9826C27.2822 12.2662 27.3767 12.6443 27.5658 13.117C27.2822 13.4951 26.9986 13.8732 26.7151 14.2513C25.7698 14.2513 25.4862 13.6841 25.2026 12.9279L25.7698 11.51Z" fill="black"/>
<path d="M76.8013 79.9271C75.4779 78.9818 75.4779 78.9818 76.0451 77.0913C76.8013 77.2804 77.463 77.942 77.5575 78.6983C77.5575 79.1709 77.3684 79.3599 76.8013 79.9271Z" fill="black"/>
<path d="M66.7001 18.1272C66.1329 17.5601 65.7548 17.0874 66.1329 16.2367L67.0782 15.9531C67.2672 16.2367 67.5508 16.5203 67.5508 16.8039C67.6453 17.4656 67.3618 18.0327 66.7001 18.1272Z" fill="black"/>
<path d="M40.5996 54.3431C40.7369 53.8908 40.5432 53.3578 40.2041 52.9782L39.9538 52.5662C39.8004 52.4208 39.7681 52.332 39.7035 52.1543L34.7296 47.324L32.6706 45.2562L28.4072 41.2739L26.2594 39.2384C25.0321 38.0752 23.4251 37.2512 22.5128 35.5712L20.373 33.8345L17.2158 30.9589L15.3345 28.8265C14.5189 28.5195 13.9052 27.9379 13.5824 27.0495C14.5841 25.3779 14.5037 23.4962 14.1487 21.4126C13.2605 20.629 12.55 19.7809 12.0414 18.6583C11.5326 18.642 11.0561 18.7146 10.6362 18.6661L9.70764 17.4949L8.73039 17.8501L8.14861 19.5702C7.38954 19.142 7.62399 17.8499 6.39645 17.7931C6.28334 18.0354 6.0814 18.3099 6.14597 18.4876C6.20232 19.4729 6.43636 20.3936 6.88036 21.3386C7.13064 21.7505 7.1144 22.2593 6.73476 22.5984C6.19369 22.4933 5.74147 22.3559 5.23269 22.3397C4.30396 22.2749 3.40753 22.299 2.51109 22.323C1.82463 22.3714 1.29959 22.8639 1.25908 23.5827L2.51068 24.5358L3.11613 25.925L2.8817 27.2171C4.06872 27.9926 5.03775 28.4451 6.24122 27.6054C6.78229 27.7105 7.17796 27.969 7.51708 28.3486L6.93551 28.9623C7.0081 29.4388 7.34723 29.8184 7.76717 29.8669C8.39708 29.9397 8.93814 30.0448 9.62461 29.9965C10.6422 30.029 11.7163 29.9403 12.7904 29.8517L13.291 30.6755L13.824 30.4818L16.7147 33.4543L16.9004 33.6885L16.9327 33.7774L17.2395 34.0682L18.2246 35.1182L18.378 35.2636L20.2836 37.186C20.647 37.3557 21.0426 37.6142 21.3495 37.905C22.2377 38.6885 23.0693 39.5932 23.7153 40.2636C23.8122 40.5301 23.9333 40.5867 23.8767 40.7078L23.8525 40.9178L26.0891 42.921C27.4861 43.7208 28.0675 44.2135 30.7482 47.1617L32.5892 48.9065C33.9296 49.8274 35.1812 50.7806 36.3197 51.976L36.352 52.0649L38.613 53.8581C39.5417 53.9229 39.9857 54.8679 40.5996 54.3431ZM11.8059 25.4824C11.8625 25.3613 11.919 25.2402 11.9756 25.119C12.0402 25.2967 12.1613 25.3533 12.1936 25.4421C12.2259 25.531 12.0482 25.5955 11.9028 25.7489C11.9594 25.6278 11.8059 25.4824 11.8059 25.4824Z" fill="#FD5444"/>
<path d="M15.4664 68.5098L15.1829 68.6043L15.4664 68.5098Z" fill="#FD5444"/>
</svg>
