<svg id="Layer_1" data-name="Layer 1" xmlns="http://www.w3.org/2000/svg" xmlns:xlink="http://www.w3.org/1999/xlink" viewBox="0 0 70 70"><defs><style>.cls-1{fill:#fff;}.cls-2{fill:url(#linear-gradient);}.cls-3{fill:url(#linear-gradient-2);}.cls-4{mask:url(#mask);}.cls-5{fill:#91c5e6;}.cls-6{fill:#57a2d4;}</style><linearGradient id="linear-gradient" x1="-451.94" y1="534.44" x2="-451.94" y2="533.48" gradientTransform="matrix(70, 0, 0, -70, 31671, 37411)" gradientUnits="userSpaceOnUse"><stop offset="0" stop-color="#eaf7ff"/><stop offset="1" stop-color="#fff"/></linearGradient><linearGradient id="linear-gradient-2" x1="-451.94" y1="534.44" x2="-451.94" y2="533.44" gradientTransform="matrix(70, 0, 0, -70, 31671, 37411)" gradientUnits="userSpaceOnUse"><stop offset="0" stop-color="#eaf7ff" stop-opacity="0.5"/><stop offset="1" stop-color="#fff" stop-opacity="0.46"/></linearGradient><mask id="mask" x="0" y="0" width="70" height="70" maskUnits="userSpaceOnUse"><g transform="translate(-5 -5)"><g id="mask-4"><circle id="path-3" class="cls-1" cx="40" cy="40" r="35"/></g></g></mask></defs><title>ahmedabad1</title><g id="Mobile"><g id="Group-48"><g id="Group-20"><g id="Group-2-Copy-7"><g id="Oval-2"><circle class="cls-2" cx="35" cy="35" r="35"/><circle class="cls-3" cx="35" cy="35" r="35"/></g><g class="cls-4"><g id="Group-13"><g id="Group-11"><g id="Combined-Shape"><path class="cls-5" d="M22.11,75V64.11l-4.67-6.22h4.67V49.33L19,45.44h3.11V37.67H34.56v7.77h3.11l-3.11,3.89v8.56h4.66l-4.66,6.22V75Zm4.67-33.44V47h3.11V41.56Zm0,13.22v4.66h3.11V54.78Zm0,14.78v4.66h3.11V69.56Zm-2.34-6.23v1.56h7.78V63.33Zm0,3.11V68h7.78V66.44Zm0-17.88v1.55h7.78V48.56Zm0,3.11v1.55h7.78V51.67Z" transform="translate(-5 -5)"/></g><polygon id="Rectangle-14" class="cls-5" points="16.33 28.78 30.33 28.78 30.33 30.33 16.33 30.33 16.33 28.78"/><polygon class="cls-6" points="17.89 25.67 28.78 25.67 28.78 27.22 17.89 27.22 17.89 25.67"/><polygon class="cls-5" points="19.44 22.56 27.22 22.56 27.22 24.11 19.44 24.11 19.44 22.56"/><polygon class="cls-6" points="21 19.44 25.67 19.44 25.67 21 21 21 21 19.44"/></g></g></g><g class="cls-4"><path class="cls-6" d="M45.44,75V64.11l-4.66-6.22h4.66V49.33l-3.11-3.89h3.11V37.67H57.89v7.77H61l-3.11,3.89v8.56h4.67l-4.67,6.22V75Zm4.67-33.44V47h3.11V41.56Zm0,13.22v4.66h3.11V54.78Zm0,14.78v4.66h3.11V69.56Zm-2.33-6.23v1.56h7.78V63.33Zm0,3.11V68h7.78V66.44Zm0-17.88v1.55h7.78V48.56Zm0,3.11v1.55h7.78V51.67Z" transform="translate(-5 -5)"/><polygon class="cls-5" points="39.67 28.78 53.67 28.78 53.67 30.33 39.67 30.33 39.67 28.78"/><polygon class="cls-6" points="41.22 25.67 52.11 25.67 52.11 27.22 41.22 27.22 41.22 25.67"/><polygon class="cls-5" points="42.78 22.56 50.56 22.56 50.56 24.11 42.78 24.11 42.78 22.56"/><polygon class="cls-6" points="44.33 19.44 49 19.44 49 21 44.33 21 44.33 19.44"/></g><g class="cls-4"><path id="Shape" class="cls-1" d="M43.81,15.16a2.51,2.51,0,1,1,.29,5H36.52a2,2,0,0,1,0-3.93h.14a3.05,3.05,0,0,1,6.05-.84,2.33,2.33,0,0,1,1.1-.25Z" transform="translate(-5 -5)"/></g><g class="cls-4"><path class="cls-1" d="M16.28,36.83A1.59,1.59,0,1,1,16.47,40H11.68a1.24,1.24,0,1,1,0-2.48h.09A1.92,1.92,0,0,1,15.58,37a1.71,1.71,0,0,1,.7-.16Z" transform="translate(-5 -5)"/></g></g></g></g></g></svg>