<svg width="255" height="510" viewBox="0 0 255 510" fill="none" xmlns="http://www.w3.org/2000/svg">
<path d="M0 8C0 3.58172 3.58172 0 8 0H247C251.418 0 255 3.58172 255 8V502C255 506.418 251.418 510 247 510H8C3.58172 510 0 506.418 0 502V8Z" fill="#E3F4FF"/>
<mask id="mask0_5303_1440" style="mask-type:alpha" maskUnits="userSpaceOnUse" x="0" y="0" width="255" height="510">
<path d="M0 8C0 3.58172 3.58172 0 8 0H247C251.418 0 255 3.58172 255 8V502C255 506.418 251.418 510 247 510H8C3.58172 510 0 506.418 0 502V8Z" fill="#E3F4FF"/>
</mask>
<g mask="url(#mask0_5303_1440)">
<g opacity="0.7">
<path fill-rule="evenodd" clip-rule="evenodd" d="M292.54 76.7166C318.271 172.746 269.754 271.419 182.018 312.033L128.6 197.691C161.411 182.467 179.698 145.403 170.049 109.392C160.4 73.3807 126.167 50.3894 90.0032 53.6468L79.0941 -72.0853C175.456 -80.5077 266.809 -19.313 292.54 76.7166Z" fill="url(#paint0_linear_5303_1440)"/>
<path fill-rule="evenodd" clip-rule="evenodd" d="M97.6615 207.162L108.571 332.894C12.2452 341.453 -79.0714 280.395 -104.802 184.365C-130.534 88.3355 -82.0167 -10.3372 5.71944 -50.9513L59.138 63.3905C26.3272 78.6148 8.03969 115.679 17.6888 151.69C27.402 187.391 61.6343 210.383 97.6615 207.162Z" fill="url(#paint1_linear_5303_1440)"/>
</g>
</g>
<path d="M45.0526 370.705C45.0526 384.725 48.5537 397.937 54.7316 409.499C61.3373 421.885 71.0164 432.389 82.7496 439.983C82.9209 440.1 83.0918 440.216 83.2711 440.317C96.0623 448.48 111.258 453.21 127.558 453.21C143.68 453.21 158.719 448.588 171.425 440.582C171.503 440.543 171.588 440.489 171.667 440.434C171.775 440.371 171.877 440.309 171.978 440.239C172.359 439.998 172.74 439.749 173.114 439.5C174.919 438.302 176.678 437.034 178.382 435.696C178.607 435.525 178.841 435.338 179.066 435.151C184.054 431.175 188.558 426.624 192.495 421.605C195.265 418.073 197.755 414.315 199.926 410.355C200.027 410.183 200.12 410.005 200.214 409.826C202.369 405.842 204.197 401.656 205.683 397.306C206.368 395.291 206.975 393.245 207.504 391.16C207.963 389.386 208.352 387.596 208.686 385.776C209.2 383.006 209.573 380.182 209.799 377.318C209.978 375.139 210.063 372.93 210.063 370.705C210.063 342.866 196.284 318.248 175.168 303.317C173.658 302.244 172.118 301.224 170.538 300.26C170.468 300.205 170.391 300.158 170.313 300.12C168.43 298.976 166.5 297.91 164.524 296.922C164.361 296.836 164.197 296.75 164.026 296.673C162.112 295.724 160.144 294.844 158.144 294.051H158.137C156.534 293.405 154.908 292.814 153.25 292.277C148.24 290.627 143.011 289.452 137.627 288.807C137.176 288.745 136.725 288.698 136.273 288.651C134.414 288.449 132.531 288.317 130.632 288.254C129.613 288.208 128.586 288.192 127.559 288.192C127.084 288.192 126.617 288.199 126.143 288.208H125.832C122.953 288.27 120.105 288.472 117.304 288.822C115.733 289.017 114.169 289.258 112.628 289.546C74.1911 296.564 45.0526 330.23 45.0526 370.705Z" fill="white"/>
<path d="M187.023 313.195C187.023 302.641 195.579 294.086 206.132 294.086C216.686 294.086 225.241 302.641 225.241 313.195C225.241 323.121 217.673 331.277 207.993 332.212L211.055 341.226L203.333 332.098C194.107 330.743 187.023 322.797 187.023 313.195Z" fill="#F75D34"/>
<path fill-rule="evenodd" clip-rule="evenodd" d="M209.625 305.001C210.676 305.089 209.99 309.534 209.99 309.534C209.99 309.534 212.502 309.49 213.324 309.446C214.146 309.401 215.652 309.49 215.789 310.326C215.927 311.162 215.424 312.526 215.424 312.526C215.424 312.526 215.789 313.186 215.972 313.934C216.155 314.682 215.379 315.958 215.379 315.958C215.379 315.958 215.607 316.882 215.287 317.938C215.022 318.815 207.673 318.721 205.187 318.664V319H199.329L199 309.808L204.533 309.18L204.583 309.594L206.246 309.402C206.246 309.402 208.575 304.913 209.625 305.001ZM203.971 309.843L204.363 318.405H199.926L199.637 310.335L203.971 309.843Z" fill="white"/>
<path d="M54.7316 409.498C61.3373 421.885 71.0164 432.389 82.7495 439.983C82.9208 440.1 83.0917 440.216 83.271 440.317C96.0622 448.479 111.258 453.21 127.558 453.21C143.68 453.21 158.719 448.588 171.425 440.582C171.503 440.543 171.588 440.489 171.666 440.434L171.729 437.041L171.923 426.187L172.297 424.289L183.843 366.067C175.331 345.013 155.164 335.287 151.001 333.288C150.504 333.046 150.472 332.16 150.472 332.16L134.67 329.965L114.246 327.133C114.246 327.133 83.9873 341.699 67.0334 367.654C60.3104 377.948 56.6768 393.937 54.7316 409.498Z" fill="#006ECE"/>
<path d="M183.844 366.065C183.844 366.065 190.929 382.554 194.306 394.473C197.683 406.392 204.239 420.297 204.239 420.297C204.239 420.297 208.212 456.055 190.929 454.267C173.646 452.479 164.707 419.702 164.707 419.702L183.844 366.065Z" fill="#006ECE"/>
<path d="M178.513 436.762C178.645 436.762 178.761 436.667 178.783 436.532C180.244 427.566 189.364 415.718 189.456 415.599C189.549 415.479 189.527 415.307 189.407 415.215C189.287 415.121 189.116 415.145 189.023 415.263C188.93 415.384 179.726 427.342 178.242 436.444C178.218 436.593 178.319 436.734 178.468 436.759C178.484 436.761 178.498 436.762 178.513 436.762Z" fill="#E3F4FF"/>
<path d="M184.372 404.604L185.025 404.822L185.212 404.885L202.454 410.565L218.147 383.014C219.205 381.147 218.1 378.781 215.976 378.408L202.329 375.996L202.108 376.028L201.994 375.949C200.772 375.856 199.59 376.486 198.998 377.575L184.372 404.604Z" fill="#24272C"/>
<path d="M185.025 404.822L185.212 404.885C189.375 396.98 193.677 388.826 198.096 380.859C198.711 379.754 199.403 378.501 200.337 377.498C200.944 376.836 201.621 376.331 202.329 375.996L202.275 375.989C202.181 375.973 202.088 375.957 201.995 375.95C201.357 376.284 200.742 376.766 200.189 377.366C199.248 378.385 198.548 379.653 197.933 380.766C193.514 388.755 189.195 396.909 185.025 404.822Z" fill="white"/>
<path d="M201.862 379.247C202.088 379.1 202.345 379.045 202.609 379.092L206.577 379.831C207.115 379.932 207.472 380.446 207.371 380.982C207.324 381.247 207.177 381.472 206.959 381.621C206.788 381.737 206.593 381.792 206.399 381.792C206.336 381.792 206.274 381.792 206.212 381.776L202.244 381.037C201.987 380.99 201.761 380.843 201.606 380.625C201.458 380.407 201.403 380.142 201.45 379.886C201.496 379.621 201.645 379.395 201.862 379.247ZM201.769 380.516C201.893 380.687 202.072 380.811 202.282 380.85L206.251 381.589C206.461 381.628 206.671 381.582 206.85 381.457C207.021 381.34 207.137 381.161 207.177 380.951C207.262 380.515 206.974 380.103 206.546 380.017L202.571 379.278C202.524 379.271 202.477 379.271 202.423 379.271C202.267 379.271 202.112 379.317 201.979 379.411C201.801 379.527 201.684 379.706 201.645 379.917C201.605 380.127 201.652 380.337 201.769 380.516Z" fill="white"/>
<path d="M204.238 420.298C204.238 420.298 204.238 416.027 204.934 412.054C205.629 408.081 208.907 403.214 209.304 402.22C209.701 401.227 215.164 395.764 214.27 393.082C213.376 390.4 208.509 384.242 206.722 385.235C204.934 386.229 209.006 394.671 209.006 394.671L206.556 397.717C206.556 397.717 202.45 395.664 199.769 395.168C197.087 394.671 186.856 392.089 186.558 393.976C186.26 395.863 200.96 401.723 200.96 401.723L200.364 402.617C200.364 402.617 181.691 395.764 180.598 397.85C179.506 399.935 193.992 406.792 193.992 406.792C193.992 406.792 182.287 401.426 181.393 402.916C180.499 404.406 189.438 410.862 189.438 410.862C189.438 410.862 188.346 418.41 191.524 420.993C194.702 423.576 202.252 422.682 204.238 420.298Z" fill="white"/>
<path d="M171.425 440.582C171.502 440.543 171.588 440.488 171.666 440.434C171.775 440.371 171.876 440.309 171.977 440.239L172.032 437.602L172.296 424.289L172.849 396.886L173.129 382.958C173.129 382.803 173.012 382.678 172.857 382.678C172.708 382.67 172.584 382.795 172.576 382.943L172.265 398.519L171.503 436.621L171.425 440.582Z" fill="#E3F4FF"/>
<path d="M87.5575 382.928L82.749 439.982C82.9203 440.099 83.0911 440.216 83.2704 440.317L88.1022 382.974C88.1098 382.827 88.0009 382.694 87.8533 382.679C87.6976 382.663 87.5655 382.78 87.5575 382.928Z" fill="#E3F4FF"/>
<path d="M151.2 254.853C157.528 253.335 163.537 251.232 170.782 254.515C176.189 256.965 178.957 261.777 179.121 267.643C183.905 267.236 188.676 270.545 190.951 274.775C193.225 279.005 192.629 284.634 189.432 288.217C186.791 291.177 182.75 292.589 178.79 292.829C174.831 293.07 170.889 292.261 167.015 291.408C165.903 291.163 165.061 290.074 164.305 289.222C159.912 284.276 156.078 278.834 152.899 273.034C151.427 270.348 150.083 267.553 149.433 264.56C148.784 261.566 149.893 257.622 151.2 254.853Z" fill="#24272C"/>
<path d="M154.309 257.507C151.341 253.389 146.049 251.077 141.011 251.697C135.974 252.317 131.399 255.843 129.518 260.557C124.911 259.159 119.53 261.754 117.156 265.942C114.782 270.13 115.064 275.498 117.181 279.823C114.105 282.635 112.514 286.767 112.589 290.933C112.743 299.476 118.278 307.688 126.139 311.035C133.495 292.885 143.343 273.731 154.309 257.507Z" fill="#24272C"/>
<path d="M114.245 327.133C114.245 327.133 120.01 345.208 137.097 341.831C137.097 341.831 145.189 340.772 150.114 334.517C150.425 334.128 150.72 333.723 151 333.288L151.872 330.518L154.175 323.157L125.574 302.5L114.245 327.133Z" fill="white"/>
<path d="M131.689 325.71C134.163 330.464 138.622 334.307 143.874 335.396C145.15 335.661 146.48 335.762 147.756 335.498C148.589 335.326 149.398 334.984 150.114 334.517C150.425 334.128 150.72 333.724 151 333.288L151.872 330.518C145.103 322.955 138.163 314.77 129.23 310.055C128.593 315.377 129.215 320.948 131.689 325.71Z" fill="#040308"/>
<path d="M178.058 283.921C177.537 279.322 175.733 274.912 172.911 271.243L173.308 270.938L172.911 271.243C169.63 266.975 164.983 263.701 159.379 262.158L159.511 261.676L159.379 262.158C145.746 258.405 131.672 266.353 127.941 279.907C127.448 281.696 127.173 283.504 127.067 285.306L127.066 285.332L127.062 285.357C126.849 286.664 126.578 288.51 126.347 290.909L126.347 290.909C125.948 295.028 125.631 300.783 125.768 308.23C125.927 316.646 130.426 323.024 136.695 326.797C142.975 330.577 151.015 331.729 158.186 329.674C158.952 329.453 159.69 329.134 160.395 328.741C163.504 327.005 165.898 324.123 167.818 320.828C169.738 317.533 171.163 313.864 172.356 310.589L172.356 310.588C173.708 306.88 174.736 303.093 175.751 299.261C175.882 298.768 176.014 298.277 176.145 297.788C177.391 293.159 178.597 288.681 178.058 283.921ZM178.058 283.921L178.555 283.865L178.058 283.921Z" fill="white" stroke="#24272C"/>
<path d="M160.36 313.22C160.397 313.22 160.435 313.212 160.471 313.196C160.548 313.162 160.605 313.095 160.626 313.012C161.996 307.496 163.353 301.895 164.658 296.364C164.693 296.217 164.602 296.069 164.455 296.034C164.307 296.004 164.16 296.09 164.125 296.238C162.848 301.651 161.521 307.131 160.18 312.533C159.056 311.891 158.035 311.092 157.141 310.154C157.037 310.044 156.864 310.041 156.754 310.144C156.645 310.249 156.641 310.422 156.745 310.532C157.76 311.597 158.933 312.491 160.23 313.188C160.27 313.209 160.315 313.22 160.36 313.22Z" fill="#040308"/>
<path d="M155.116 315.838C156.117 315.838 156.94 314.994 157.249 314.678C157.354 314.569 157.352 314.396 157.244 314.291C157.136 314.186 156.963 314.187 156.857 314.295C155.993 315.18 155.286 315.464 154.633 315.192C153.773 314.83 153.69 313.769 153.68 312.712C153.679 312.562 153.549 312.45 153.404 312.442C153.253 312.444 153.131 312.567 153.132 312.719C153.142 313.634 153.157 315.166 154.421 315.696C154.659 315.796 154.892 315.838 155.116 315.838Z" fill="#040308"/>
<path d="M167.919 301.419C167.629 302.445 168.115 303.479 169.003 303.73C169.892 303.981 170.848 303.354 171.137 302.328C171.427 301.303 170.942 300.268 170.053 300.017C169.164 299.766 168.209 300.393 167.919 301.419Z" fill="#040308"/>
<path d="M152.225 295.559C151.936 296.584 152.421 297.619 153.31 297.87C154.199 298.121 155.154 297.493 155.444 296.468C155.734 295.442 155.248 294.407 154.359 294.156C153.47 293.905 152.515 294.533 152.225 295.559Z" fill="#040308"/>
<path d="M125.366 283.535C123.267 283.113 121.02 283.906 119.468 285.381C117.916 286.855 117.026 288.944 116.775 291.07C116.206 295.883 119.062 300.905 123.489 302.877C124.605 303.374 125.85 303.694 127.05 303.461C128.658 303.15 129.956 301.87 130.649 300.386C131.342 298.902 131.511 297.229 131.548 295.591C131.651 290.937 131.064 284.68 125.366 283.535Z" fill="white"/>
<path d="M125.986 296.266C126.008 296.266 126.032 296.263 126.055 296.257C126.213 296.219 126.31 296.06 126.272 295.902C125.986 294.713 125.69 293.483 125.179 292.33C124.595 291.011 123.812 290 122.853 289.327C122.72 289.234 122.536 289.266 122.443 289.399C122.349 289.532 122.382 289.715 122.515 289.809C123.385 290.419 124.1 291.348 124.641 292.569C125.13 293.672 125.419 294.876 125.7 296.041C125.732 296.175 125.853 296.266 125.986 296.266Z" fill="#040308"/>
<path d="M150.583 254.283C153.6 255.681 156.471 257.523 158.613 260.066C160.755 262.61 162.114 265.918 161.864 269.234C161.731 270.996 161.088 272.808 159.714 273.92C157.685 275.562 154.54 275.195 152.45 273.632C152.85 276.021 153.134 278.469 152.667 280.845C152.2 283.222 150.673 285.546 148.357 286.254C146.677 286.767 144.806 286.357 143.306 285.442C141.805 284.528 140.635 283.154 139.67 281.685C139.781 284.039 139.262 286.381 137.959 288.344C136.657 290.308 134.406 291.718 132.052 291.645C131.077 291.615 130.121 291.34 129.238 290.927C124.726 288.815 122.599 283.268 123.179 278.319C123.76 273.371 126.515 268.951 129.581 265.024C132.052 261.86 134.81 258.857 138.168 256.656C141.526 254.456 146.941 252.594 150.583 254.283Z" fill="#24272C"/>
<path d="M180.341 269.767C181.155 272.991 181.534 276.381 180.908 279.646C180.282 282.912 178.569 286.052 175.836 287.946C174.384 288.954 172.573 289.596 170.843 289.229C168.289 288.688 166.593 286.014 166.49 283.406C164.887 285.222 163.165 286.985 161.025 288.12C158.885 289.254 156.118 289.532 154.109 288.179C152.652 287.198 151.793 285.487 151.558 283.745C151.322 282.004 151.653 280.23 152.185 278.555C150.426 280.124 148.281 281.196 145.936 281.422C143.59 281.647 141.077 280.788 139.65 278.913C139.06 278.137 138.671 277.221 138.436 276.276C137.233 271.441 140.201 266.295 144.41 263.628C148.618 260.961 153.787 260.317 158.768 260.224C162.782 260.149 166.852 260.399 170.676 261.621C174.501 262.842 179.358 265.874 180.341 269.767Z" fill="#24272C"/>
<path d="M171.851 335.225L168.015 336.405L171.851 337.585L173.031 341.421L174.211 337.585L178.047 336.405L174.211 335.225L173.031 331.389L171.851 335.225Z" fill="#C7E3F4"/>
<path d="M184.983 349.713L182.185 350.574L184.983 351.435L185.844 354.234L186.705 351.435L189.504 350.574L186.705 349.713L185.844 346.915L184.983 349.713Z" fill="#C7E3F4"/>
<path d="M58.692 365.208L55.8933 366.069L58.692 366.93L59.5526 369.729L60.4137 366.93L63.2124 366.069L60.4137 365.208L59.5526 362.41L58.692 365.208Z" fill="#C7E3F4"/>
<path d="M47.1791 377.554L44.058 378.514L47.1791 379.475L48.1392 382.596L49.0994 379.475L52.2205 378.514L49.0994 377.554L48.1392 374.433L47.1791 377.554Z" fill="#C7E3F4"/>
<path d="M27.1791 357.554L24.058 358.514L27.1791 359.475L28.1392 362.596L29.0994 359.475L32.2205 358.514L29.0994 357.554L28.1392 354.433L27.1791 357.554Z" fill="white"/>
<path d="M101.852 302.881L98.7314 303.841L101.852 304.801L102.813 307.922L103.773 304.801L106.894 303.841L103.773 302.881L102.813 299.759L101.852 302.881Z" fill="#C7E3F4"/>
<path d="M54.081 390.482L50.2512 391.66L54.081 392.839L55.2593 396.669L56.4376 392.839L60.2678 391.66L56.4376 390.482L55.2593 386.652L54.081 390.482Z" fill="#C7E3F4"/>
<path d="M212.074 367.608H212.635L212.571 368.165L211.994 373.193L215.964 367.811L216.114 367.608H216.367H235.941C237.419 367.608 238.616 366.41 238.616 364.933V352.042C238.616 350.565 237.419 349.367 235.941 349.367H202.839C201.361 349.367 200.164 350.565 200.164 352.042V364.933C200.164 366.411 201.362 367.608 202.839 367.608H212.074Z" fill="white" stroke="black"/>
<path d="M233.116 353C233.668 353 234.116 353.448 234.116 354C234.116 354.552 233.668 355 233.116 355H205.116C204.564 355 204.116 354.552 204.116 354C204.116 353.448 204.564 353 205.116 353H233.116Z" fill="#C7E3F4"/>
<path d="M233.116 359C233.668 359 234.116 359.448 234.116 360C234.116 360.552 233.668 361 233.116 361H216.116C215.564 361 215.116 360.552 215.116 360C215.116 359.448 215.564 359 216.116 359H233.116Z" fill="#C7E3F4"/>
<defs>
<linearGradient id="paint0_linear_5303_1440" x1="149.44" y1="-90.9346" x2="252.365" y2="293.184" gradientUnits="userSpaceOnUse">
<stop stop-color="white"/>
<stop offset="1" stop-color="white" stop-opacity="0"/>
</linearGradient>
<linearGradient id="paint1_linear_5303_1440" x1="-64.6269" y1="-32.1021" x2="38.2242" y2="351.743" gradientUnits="userSpaceOnUse">
<stop stop-color="white"/>
<stop offset="1" stop-color="white" stop-opacity="0"/>
</linearGradient>
</defs>
</svg>
