<svg width="8" height="8" viewBox="0 0 8 8" fill="none" xmlns="http://www.w3.org/2000/svg">
<path d="M3.51666 0.182846C1.57444 0.182846 2.40601e-08 2.19753 5.37405e-08 4.68285C6.35929e-08 5.50785 0.174001 6.28066 0.476947 6.94535C0.545448 7.09566 0.67598 7.18285 0.812006 7.18285L6.22131 7.18285C6.35733 7.18285 6.48786 7.09566 6.55637 6.94535C6.85931 6.28066 7.03331 5.50785 7.03331 4.68285C7.03331 2.19753 5.45888 0.182846 3.51666 0.182846ZM3.51666 1.18285C3.69627 1.18285 3.84121 1.34113 3.88688 1.55238C3.87333 1.58769 3.85465 1.61847 3.84476 1.6566L3.73217 2.08894C3.66953 2.14347 3.59822 2.18285 3.51678 2.18285C3.30102 2.18285 3.12604 1.95894 3.12604 1.68285C3.12604 1.40675 3.30089 1.18285 3.51666 1.18285ZM1.17222 5.68285C0.956457 5.68285 0.781479 5.45894 0.781479 5.18285C0.781479 4.90675 0.956457 4.68285 1.17222 4.68285C1.38798 4.68285 1.56296 4.90675 1.56296 5.18285C1.56296 5.45894 1.38798 5.68285 1.17222 5.68285ZM1.75833 3.18285C1.54257 3.18285 1.36759 2.95894 1.36759 2.68285C1.36759 2.40675 1.54257 2.18285 1.75833 2.18285C1.97409 2.18285 2.14907 2.40675 2.14907 2.68285C2.14907 2.95894 1.97409 3.18285 1.75833 3.18285ZM4.77154 2.05144L4.02266 4.92644C4.18983 5.10988 4.29814 5.37878 4.29814 5.68285C4.29814 5.86597 4.25686 6.03519 4.1897 6.18285L2.84361 6.18285C2.77645 6.03519 2.73518 5.86597 2.73518 5.68285C2.73518 5.15253 3.05876 4.723 3.46659 4.68925L4.21559 1.8141C4.26651 1.61785 4.43209 1.51019 4.58631 1.57706C4.73979 1.64253 4.82258 1.85503 4.77154 2.05144V2.05144ZM4.95055 2.94519L5.14006 2.21785C5.18243 2.19769 5.22712 2.183 5.27498 2.183C5.49075 2.183 5.66572 2.40691 5.66572 2.683C5.66572 2.9591 5.49075 3.183 5.27498 3.183C5.13603 3.18285 5.0199 3.08488 4.95055 2.94519ZM5.86109 5.68285C5.64533 5.68285 5.47035 5.45894 5.47035 5.18285C5.47035 4.90675 5.64533 4.68285 5.86109 4.68285C6.07685 4.68285 6.25183 4.90675 6.25183 5.18285C6.25183 5.45894 6.07685 5.68285 5.86109 5.68285Z" fill="#E31E25"/>
</svg>
