<svg width="92" height="92" viewBox="0 0 92 92" fill="none" xmlns="http://www.w3.org/2000/svg">
<path d="M11.893 44.4939H10.4349C10.2266 44.271 10.3308 43.9366 10.6432 42.5992L8.45612 39.1443C7.83124 38.2527 7.31051 37.3611 6.78978 36.4695C6.68563 36.0237 6.58148 35.4664 6.58148 34.9092C8.24783 35.4664 8.56027 35.6893 12.4137 40.0359C13.5593 38.8099 14.8091 37.584 15.9547 36.4695C17.1003 35.355 18.4542 34.0176 19.704 33.0145C20.9537 32.0115 22.5159 31.1199 23.974 30.1168C23.7657 27.8878 22.7242 25.8817 22.8284 23.5413C23.1408 23.6527 23.4532 23.6527 23.5574 23.7642C24.0781 24.3214 24.4947 24.9901 24.9113 25.6588C25.432 26.5504 25.9528 27.442 26.4735 28.4451C27.9316 28.3336 29.2855 27.9993 30.5352 27.3306C33.7638 25.9932 37.3048 25.4359 40.7416 25.4359C41.054 25.4359 41.3665 25.4359 41.6789 25.3245C42.0955 24.8787 42.1996 24.3214 41.9914 23.7642C41.7831 22.7611 41.8872 21.6466 42.4079 20.6436C42.4079 20.5321 42.7204 20.5321 42.8245 20.4207L44.8033 25.4359C52.0936 27.3306 54.6973 27.442 61.8834 32.2344C62.6124 31.2313 63.2373 30.0054 63.5497 28.668C63.9663 26.9962 64.6953 25.5474 65.5285 24.0985C65.5285 24.0985 65.6327 24.0985 65.9451 23.9871C66.0492 24.3214 66.1534 24.5443 66.1534 24.8787C66.3617 26.9962 66.0492 29.1138 65.4244 31.1199C64.5912 32.0115 64.5912 33.126 64.5912 34.3519C67.299 37.2496 70.5276 39.5901 72.6105 43.1565C73.652 42.9336 74.5893 42.3763 75.2142 41.3733C76.1515 39.9244 77.2971 38.587 78.5468 37.3611C78.651 37.2496 78.8593 37.1382 78.9634 37.1382C79.4842 37.0267 79.5883 37.584 79.7966 37.9183C78.8593 42.5992 74.6934 47.2801 69.2778 49.1748C70.2151 50.7351 71.1524 52.2954 71.9856 53.8557C72.8188 55.3045 73.2354 57.0877 74.2768 58.5366C74.6934 58.4251 75.11 58.3137 75.5266 58.0908C78.1303 56.3076 81.0464 55.1931 83.3376 52.9641C84.6915 51.6267 85.9413 50.2893 87.191 48.8404C87.5035 48.3946 88.1283 48.1717 88.6491 48.3946C88.9615 49.3977 88.8574 50.5122 88.2325 51.2923C86.462 54.4129 84.2749 56.9763 81.0464 58.4251C79.0676 59.3167 77.0888 60.3198 75.11 61.3228C75.4224 62.6602 76.6722 63.6633 76.1515 65.335L74.381 67.1182C74.381 68.0098 74.7976 68.2327 75.3183 68.4556C76.8805 69.3472 78.2344 70.5732 79.2759 72.0221C79.4842 72.3564 79.5883 72.5793 79.6925 72.9136C79.5883 73.5824 79.0676 74.0282 78.4427 73.9167C78.3386 73.9167 78.2344 73.9167 78.1303 73.8053C76.6722 73.3595 75.4224 72.4679 74.381 71.3534C73.8602 70.4618 73.0271 69.9045 72.0898 69.5701C70.9441 70.3503 69.7985 71.2419 68.7571 72.1335C67.6114 72.9137 66.3617 73.8053 65.1119 74.6969C66.4658 76.2572 67.7156 78.0404 68.6529 79.935L67.6114 81.4953C65.7368 80.0465 64.1746 78.2633 62.8207 76.1457C61.1543 76.5915 59.6963 77.706 58.0299 78.2633C56.3636 78.8205 54.6973 79.3778 53.0309 80.0465C53.0309 80.4923 53.0309 80.9381 53.0309 81.2724C53.1351 82.4984 53.3433 83.7243 53.4475 84.9503C53.4475 85.3961 53.2392 85.8419 53.0309 86.2877C52.6143 86.5106 51.9894 86.2877 51.7811 85.8419C51.3646 85.1732 51.0521 84.5045 50.7397 83.7243C50.5314 82.9442 50.3231 82.0526 50.2189 81.2724C49.9065 81.161 49.4899 81.161 49.0733 81.161C47.8236 81.3839 46.4697 81.7182 45.1158 81.9411C44.0743 82.164 43.0328 82.2755 41.8872 82.2755C39.9084 82.164 38.0338 82.164 36.055 82.2755C35.7426 83.2785 35.4301 84.1701 35.2218 85.1732C35.0135 86.1762 34.0762 86.7335 34.3886 87.9594C35.9508 88.2938 37.513 88.2938 39.0752 88.1823C40.7416 88.1823 42.4079 88.1823 44.0743 88.0709C45.7406 87.9594 47.1987 87.9594 49.0733 87.848C48.6567 88.2938 48.136 88.6281 47.5111 88.851C45.0116 89.6312 42.5121 90.077 39.9084 90.1884C38.7628 90.2999 37.6172 90.2999 36.4716 90.2999C35.326 90.2999 34.1804 90.077 33.0347 89.9655C32.0974 89.9655 31.2642 89.7426 30.3269 89.2968C29.702 88.9625 28.8689 88.851 28.1398 88.6281C27.9316 88.5167 27.7233 88.1823 27.4108 87.9594C28.3481 87.4022 29.5979 87.5136 30.4311 88.1823L31.785 87.5136L33.6596 82.4984C33.243 82.2755 32.9306 82.164 32.514 82.0526C31.785 81.9411 31.056 81.9411 30.2228 81.9411C28.7647 81.9411 27.4108 81.7182 26.0569 81.2724C24.9113 80.9381 23.6615 80.6037 22.4118 80.2694C20.6413 82.3869 18.9749 84.6159 17.5169 86.9564L16.7879 85.5075C17.5169 83.1671 18.8708 81.0495 20.7454 79.6007C20.433 79.3778 20.2247 79.1549 19.9123 78.932C17.7252 78.0404 15.5381 77.2602 13.4552 76.3686C12.2054 75.8114 11.0598 74.9198 10.1225 73.8053C9.60174 74.0282 9.081 74.2511 8.66442 74.3625C8.14368 74.474 7.5188 74.3625 6.89392 74.474C6.37319 74.5854 5.74831 74.6969 5.22757 74.8083C4.3944 74.8083 3.56123 74.5854 2.72805 74.3625C1.27 73.9167 0.540973 72.245 0.95756 70.7961C0.95756 70.5732 1.06171 70.4618 1.16585 70.3503C1.79073 68.9015 2.93635 67.6755 4.29025 67.0068C5.54001 66.4495 6.68563 65.6694 7.7271 65.1121C8.66442 61.6572 10.0183 58.3137 11.6847 55.1931C11.9971 54.6358 12.3095 54.0786 12.622 53.6328C13.4552 52.6297 14.08 51.5152 14.6008 50.2893C13.9759 48.3946 13.0386 46.3885 11.893 44.4939ZM12.5178 73.248C16.2671 74.9198 20.0164 76.4801 23.8698 77.8175C27.0984 78.932 30.4311 79.6007 33.8679 79.6007C36.9923 79.6007 40.0126 79.6007 43.137 79.6007C43.866 79.6007 44.595 79.6007 45.324 79.4892C47.0945 79.1549 48.865 78.7091 50.6355 78.1518C53.4475 77.2602 56.1553 76.1457 58.759 74.9198C62.8207 72.9137 66.7783 70.5732 70.4234 67.7869C71.6732 67.0068 72.6105 65.7808 73.1312 64.332C72.298 62.103 71.569 59.874 70.7358 57.645C69.4861 54.4129 67.4031 51.7381 65.5285 48.9519C63.5497 47.3916 62.1958 45.274 60.0087 44.0481C59.488 43.7137 58.9673 43.3794 58.5507 43.045C55.947 41.1504 53.0309 39.7015 50.0107 38.9214C47.8236 38.4756 45.6365 38.1412 43.3453 38.0298C40.7416 37.9183 38.0338 38.1412 35.4301 38.6985C32.514 39.2557 29.5979 40.3702 27.0984 42.042C26.4735 42.5992 25.7445 43.045 25.0154 43.6023C22.9325 44.6053 21.4745 46.5 19.9123 48.1717C18.0376 50.4007 16.2671 52.7412 14.7049 55.3045C13.1427 57.4221 11.893 59.7625 11.0598 62.2144C10.5391 63.6633 9.91418 65.0007 9.081 66.2266C8.45612 67.3411 7.41466 68.2327 6.26904 68.79C5.22757 69.3472 4.29025 70.2389 3.76952 71.4648C3.76952 71.7992 3.76952 72.022 3.87367 72.3564L6.37319 73.0251L10.3308 72.8022C10.0183 71.6877 9.60174 70.6846 9.39344 69.5701C9.18515 68.9014 9.49759 68.2328 10.0183 68.0099C10.1225 68.0099 10.2266 67.8984 10.3308 67.8984C11.2681 68.2327 11.3722 69.2358 11.4764 70.1274C11.5805 71.2419 11.893 72.245 12.5178 73.248ZM28.973 37.584C29.1813 37.584 29.3896 37.6954 29.4938 37.6954C33.243 36.1351 37.3048 35.355 41.3665 35.355C42.1996 35.355 42.8245 34.7977 43.0328 34.0176C43.5536 32.1229 43.5536 30.1168 42.9287 28.3336C37.7213 27.6649 32.4099 28.668 27.7233 31.1199C28.0357 32.2344 28.4523 33.2374 28.6606 34.2405C28.8689 35.2435 28.8689 36.4695 28.973 37.584ZM13.7676 41.9305L16.9962 47.3916C18.4542 45.9427 20.0164 44.4939 21.3703 43.045C22.7242 41.5962 24.703 40.816 25.9528 39.1443C26.1611 36.8038 26.4735 34.4634 24.8072 32.3458C20.7454 35.1321 16.892 37.9183 13.7676 41.9305ZM45.6365 35.355C47.6153 35.6893 49.5941 35.9122 51.4687 36.4695C53.3433 37.0267 55.3221 37.9183 57.3009 38.8099L60.4253 34.7977C59.6963 34.2405 59.1756 33.6832 58.5507 33.3489C57.9258 33.0145 57.0926 32.7916 56.4677 32.3458C53.6558 30.5626 50.6355 29.8939 47.6153 28.8909C47.0945 28.668 46.5738 28.7794 46.1572 29.0023C46.1572 30.0054 46.2614 31.0084 46.1572 32.1229C46.0531 33.2374 45.8448 34.2405 45.6365 35.355ZM71.0483 45.1626C68.8612 41.8191 66.0492 39.0328 62.9248 36.8038C61.9875 37.584 60.9461 38.3641 60.0087 39.2557C59.8004 39.4786 59.5921 39.813 59.488 40.1473C59.8004 40.4817 60.1129 40.816 60.5295 41.0389C62.5083 42.1534 64.2788 43.7137 65.7368 45.4969C66.3617 46.2771 67.1949 46.9458 68.1322 47.503L71.0483 45.1626Z" fill="black"/>
<path d="M3.33269 48.6177C3.43684 49.1749 3.64513 49.7322 3.85343 50.2894C4.06172 50.6238 4.37416 50.9581 4.58245 51.2925L4.16587 52.407L2.29123 52.6299C1.24976 51.9612 0.31244 51.2925 0 49.9551C0 49.2864 0.520733 48.7291 1.14561 48.7291C1.97879 48.6177 2.60367 48.6177 3.33269 48.6177Z" fill="black"/>
<path d="M81.1456 82.8978L80 80.223L81.7705 78.2169C82.812 78.1055 83.7493 78.9971 83.8534 80.1116C83.8534 80.223 83.8534 80.223 83.8534 80.3345L82.6037 82.5635L81.1456 82.8978Z" fill="black"/>
<path d="M32.1456 22.1866L31 21.4065C31.2083 20.5149 31.9373 19.9576 32.7705 19.8462C33.6037 20.9607 33.4995 21.1836 32.1456 22.1866Z" fill="black"/>
<path d="M51.3049 16.4692C49.7427 15.4662 49.7427 15.3547 50.4717 14.0173C51.0966 13.9059 51.5132 14.3517 51.8256 14.7975C52.138 15.3547 51.9297 16.1349 51.409 16.4692C51.409 16.4692 51.409 16.4692 51.3049 16.4692Z" fill="black"/>
<path d="M0.957358 39.0331L0.540771 37.8072C0.853212 37.027 1.0615 37.027 1.99883 37.4728C2.20712 38.9217 2.20712 38.9217 0.957358 39.0331Z" fill="black"/>
<path d="M41.887 41.3733L42.0953 40.5931C43.3451 40.816 44.5948 41.1504 45.9488 41.3733C48.7607 41.8191 50.6354 43.8252 52.6141 45.7198C53.3432 46.6114 54.0722 47.6145 54.5929 48.729C54.6971 48.9519 54.8012 49.1748 54.8012 49.5091C55.2178 50.5122 55.7385 51.6267 56.051 52.6298C56.3634 53.6328 56.4676 54.8588 56.78 55.9733C57.509 59.2053 56.9883 62.5488 55.4261 65.4465C55.1137 65.8923 54.9054 66.3381 54.6971 66.7839C54.0722 69.0129 52.4058 70.4618 50.8436 71.7992C49.2814 73.0251 47.511 73.8053 45.6363 74.1396C44.699 74.2511 43.8658 74.474 42.9285 74.8083C39.8041 76.2572 36.888 75.477 33.9719 74.1396C32.5138 73.4709 31.1599 72.5793 30.0143 71.3534C29.9102 71.2419 29.806 71.1305 29.7019 71.019C27.6189 69.9045 26.265 67.6755 24.807 65.6694C24.4945 63.8862 24.1821 62.103 23.8697 60.3198C23.5572 58.871 23.6614 57.4221 24.0779 56.0847C24.4945 55.0817 24.9111 53.9671 25.1194 52.8526C25.3277 51.7381 25.7443 50.6237 26.265 49.6206C27.4106 47.0572 29.2853 44.9397 31.4724 43.3794C33.9719 41.7076 36.888 40.7046 39.9082 40.5931C40.7414 40.4817 41.158 41.2618 41.887 41.3733ZM41.2622 59.6511C41.2622 59.0939 41.2622 58.6481 41.2622 58.2023C41.2622 57.4221 41.3663 56.642 41.5746 55.8618C41.9912 53.6328 41.4704 51.4038 41.9912 49.2862C41.6787 48.2832 41.887 47.1687 41.158 46.2771C41.0539 46.1656 40.7414 46.1656 40.5331 46.0542C39.9082 46.7229 39.5958 47.6145 39.7 48.5061C39.7 51.8496 39.4917 55.1931 39.1792 58.5366C39.0751 59.2053 39.0751 59.7626 39.0751 60.4313C38.9709 61.4343 39.5958 62.3259 40.5331 62.4374H40.6373C42.7202 61.7687 45.0114 60.9885 47.3027 60.2084C47.7192 59.9855 48.0317 59.7626 48.3441 59.5397C48.4483 59.4282 48.4483 59.2053 48.5524 58.9824L47.8234 57.645C45.5322 57.8679 43.5534 59.2053 41.2622 59.6511Z" fill="#FD5444"/>
</svg>
