<svg width="92" height="93" viewBox="0 0 92 93" fill="none" xmlns="http://www.w3.org/2000/svg">
<path d="M55.1095 40.7915C55.1095 40.8742 55.1095 40.8742 55.1095 40.9569H55.2047L55.1095 40.7915ZM84.3299 87.2878C83.854 86.9569 83.2829 86.7087 82.807 86.5432C82.1407 86.295 81.3793 86.1296 80.713 86.0468C79.8564 86.3778 78.8094 86.3778 77.9528 86.1296C77.1913 86.0468 76.5251 85.6332 75.7636 86.0468C74.3359 85.9641 72.9082 85.8814 71.4805 85.7159C71.5757 84.8886 72.5275 84.6404 72.6227 83.9785C73.0986 82.3238 72.5275 80.5864 71.195 79.2627C71.5757 78.2699 71.8612 77.3598 72.1468 76.5325C72.5275 75.5396 72.3371 74.3814 71.5757 73.4713C71.0998 72.8922 70.6239 72.313 70.3383 71.6512L72.1468 69.6656C72.1468 66.2735 72.9082 66.7699 69.3865 62.054C69.6721 61.7231 69.9576 61.3922 70.2432 60.9785C71.195 59.903 71.4805 58.4965 70.9094 57.2555C70.4335 56.2627 70.148 55.1044 69.8624 54.1116C68.8154 53.0361 67.6733 52.126 66.0552 51.9605C65.6745 51.8778 65.2938 51.7123 65.0082 51.6296C62.8191 50.9677 60.6299 50.5541 58.3456 50.4713H57.5842H57.489L54.0625 50.3058H52.6348C53.2059 48.8166 53.6818 47.3274 54.0625 45.8382C54.4432 44.2663 54.5384 42.6116 54.348 41.0397C53.9673 41.0397 53.7769 41.9497 53.4914 41.867C53.2059 41.7843 52.5396 41.5361 52.2541 41.4533C52.1589 41.6188 52.1589 41.7843 52.1589 41.9497C52.2541 43.9354 51.7782 45.921 50.9215 47.7411C50.5408 48.6512 50.2553 49.644 50.0649 50.554C49.3035 51.1332 48.9227 51.9605 49.1131 52.8706C49.2083 53.1188 49.4938 53.367 49.6842 53.6152C50.7312 53.4497 51.1119 52.7051 51.7782 52.126C53.2059 51.7951 54.7287 52.0433 56.2516 52.0433C57.6793 52.0433 59.107 52.2087 60.5347 52.4569C62.0576 52.7051 63.4853 53.0361 64.9131 53.367L66.4359 52.3742C66.4359 52.7051 66.5311 53.0361 66.7215 53.367C66.9118 53.6152 67.1022 53.8634 67.3878 54.1116C68.5299 55.4353 69.0058 57.09 68.9106 58.662C68.5299 58.9929 68.1492 59.4893 67.7685 59.9857C67.3877 60.4821 66.8167 60.8958 66.4359 61.2267V62.385C67.1022 62.8814 67.7685 63.4605 68.3396 64.0397C68.9106 64.7015 69.3865 65.3634 69.7673 66.108C69.7673 66.108 69.7673 66.4389 69.8624 66.7699C70.2432 67.9281 69.4817 69.0864 68.1492 69.5001C67.4829 69.6655 66.9118 70.0792 66.5311 70.5756C66.4359 70.8238 66.3408 71.072 66.2456 71.3202C66.9118 71.8166 67.4829 72.3958 68.1492 72.8094C69.101 73.4713 69.6721 74.4641 69.6721 75.5396C69.6721 75.9533 69.5769 76.2843 69.5769 76.7807C69.101 77.1116 68.7203 77.3598 68.3396 77.608C67.9588 77.8562 67.4829 77.9389 67.1022 78.1044C66.6263 78.3526 66.3408 78.7663 66.4359 79.2627C66.5311 79.7591 66.9118 80.09 67.3878 80.2555C67.6733 80.3382 67.9588 80.3382 68.2444 80.4209C68.7203 80.5864 69.1962 80.7519 69.4817 80.9173C69.9576 81.5792 70.148 82.3238 70.0528 82.9857C69.8624 83.2339 69.6721 83.3994 69.4817 83.5648C68.1492 84.3922 66.7215 84.8886 65.1034 85.2195C64.7227 85.3022 64.2468 85.3022 63.7709 85.3022C62.7239 85.2195 61.6769 85.385 60.6299 85.6332C59.9637 85.7986 59.2974 85.8814 58.6311 85.9641C56.5372 86.295 54.4432 86.5432 52.3492 86.7914C50.5408 87.0396 48.7324 87.2051 46.924 87.4533C45.0203 87.7015 43.0216 87.9497 41.1179 88.1979C37.3107 88.6943 34.4553 87.3706 32.0758 84.9713C31.7903 84.6404 31.4095 84.2267 31.2192 83.8958C31.0288 83.813 30.8385 83.7303 30.5529 83.6476C30.1722 83.5648 29.7915 83.5648 29.3156 83.5648C27.8879 84.7231 25.8891 84.7231 24.0807 85.2195C23.5096 84.3094 23.3192 83.3166 23.3192 82.3238C23.0337 79.1799 22.8433 76.0361 22.6529 72.8922C22.6529 72.644 22.6529 72.3958 22.7481 72.1476C23.0337 69.2519 23.224 66.3562 23.1288 63.295C24.1758 62.8814 25.318 62.5504 26.4602 62.385C27.5071 62.3022 27.6975 61.2267 28.6493 61.144C28.9348 60.7303 29.1252 60.3166 29.3156 59.903C29.8867 58.4138 30.4577 56.9245 30.9336 55.3526C31.5047 53.6979 32.6469 52.2915 33.5987 50.8023C33.7891 50.4713 34.0746 50.3058 34.3601 50.0576C35.4071 49.5612 36.2637 48.7339 37.3107 48.1548C39.4047 46.9138 40.8324 45.0936 41.5938 42.9425C41.7842 42.5289 41.9746 42.1152 42.1649 41.5361C42.5457 41.3706 43.0215 41.2879 43.4023 41.1224C43.783 40.9569 44.2589 40.9569 44.7348 40.8742C45.7818 40.3778 46.5432 39.5505 46.924 38.6404C47.2095 37.3994 47.0191 36.1584 46.3529 35.0828C45.877 34.7519 45.4011 34.3382 45.0203 33.9246C44.6396 33.5109 43.783 33.5936 43.8782 32.9318C45.3059 32.9318 45.3059 32.9318 49.1131 35.1656C49.8745 36.2411 51.2071 39.8814 52.1589 41.1224C52.73 40.626 53.4914 40.3778 54.348 40.626C54.2528 40.1296 53.7769 38.144 53.6818 37.8958C53.5866 37.5649 53.3962 37.3167 53.2059 36.9857C53.2059 36.903 53.1107 36.8202 53.1107 36.8202L53.0155 36.6548C52.73 36.1584 51.9685 35.0001 51.1119 33.7591L51.0167 33.9246C50.636 33.8418 50.1601 33.6764 49.8745 33.4282C48.542 32.0217 46.6384 31.608 44.7348 31.0289C43.783 30.6979 42.736 30.7807 41.8794 31.2771C41.7842 31.5253 41.689 31.7735 41.5938 32.0217C41.3083 33.9246 41.118 35.8274 40.7372 37.6476C40.3565 39.8814 39.4999 42.0325 38.4529 44.0181C38.1673 44.5145 37.8818 44.9282 37.5011 45.3418C36.5493 46.7483 34.7409 47.162 33.6939 48.403C32.0758 48.9821 31.4095 50.3886 30.2674 51.4641C29.4108 53.6152 28.0782 55.5181 27.6975 57.7519C27.6023 58.5792 27.2216 59.4066 26.6505 60.0684C24.3662 61.0612 24.3662 61.0612 22.9385 60.9785C22.8433 60.7303 22.8433 60.4821 22.8433 60.2339C22.9385 59.4066 22.7481 58.662 22.2722 57.9174C21.9867 57.2555 21.4156 56.8418 20.559 56.6763C20.0831 56.5936 19.512 56.5109 18.9409 56.5109C17.9891 56.4281 17.1325 56.4281 16.1807 56.3454C13.1349 56.0145 10.0891 55.9317 7.13853 56.0145C6.18673 55.9317 5.23493 56.2627 4.56866 56.9246C3.80722 58.9929 4.09276 61.0612 4.09276 63.0469C4.09276 64.2879 4.28312 65.5289 4.28312 66.7699C4.09276 68.8382 4.09276 70.9893 4.28312 73.0576C4.3783 73.7195 4.3783 74.3814 4.28312 75.0432C3.9024 78.6008 3.99758 82.1584 4.47348 85.7159C4.75902 86.3778 4.66383 87.1224 4.37829 87.7842C3.80721 88.0324 3.04577 88.1979 2.37951 88.1152C1.33253 88.1979 0.285541 88.4461 0 89.6044C0.666263 91.0109 0.666254 91.0109 1.99878 91.2591C4.56865 91.7555 7.23371 92.0037 9.89876 92.0037C12.5638 92.0864 15.2289 92.2519 17.8939 92.3346C21.5108 92.4173 25.1276 92.5001 28.8397 92.5001C30.9336 92.5001 33.1228 92.4173 35.2168 92.4173C37.3107 92.4173 39.4047 91.9209 41.4987 92.4173C41.7842 92.4173 42.1649 92.4173 42.4505 92.3346C43.2119 92.2519 43.9734 92.1691 44.7348 92.1691C47.6854 92.0037 50.636 92.4173 53.5866 91.7555C53.7769 91.7555 53.8721 91.7555 54.0625 91.7555L61.5817 91.6727C62.248 91.7555 62.9143 91.7555 63.5805 91.59C65.0082 91.3418 66.4359 91.1763 67.8637 91.2591C69.6721 91.3418 71.2901 90.7627 73.0986 90.8454C74.1456 90.4317 75.3829 90.349 76.5251 90.5972C78.048 89.5217 80.2371 90.0181 81.76 89.1907L82.7118 89.6044C83.1877 89.5217 83.6636 89.3562 84.1395 89.1907C84.9009 88.9425 85.2817 88.1979 84.9009 87.536C84.8058 87.6188 84.6154 87.4533 84.3299 87.2878ZM43.6878 35.1656C45.4011 36.0756 45.4962 36.572 44.83 38.6404C44.3541 38.9713 43.783 39.2195 43.2119 39.1368C42.736 37.8131 43.4023 36.4893 43.6878 35.1656ZM20.1782 86.4605C19.9879 87.0396 19.8927 87.6188 19.8927 88.1979C19.2264 88.5289 18.465 88.6943 17.7036 88.6116C15.7048 88.6116 13.8012 88.6116 11.8024 88.6943C10.565 88.6943 9.42285 88.777 8.18551 88.8598C7.70961 88.5288 7.42408 88.0324 7.42408 87.536C7.04336 85.385 6.85299 83.2339 6.94817 81.0001C7.13854 79.0972 7.23371 77.1943 7.13853 75.2914C6.94817 73.3886 6.94817 71.4857 6.94817 69.5828C7.04336 67.6799 6.94816 65.7771 6.7578 63.8742C6.7578 63.4605 6.85299 63.1296 6.94817 62.7159C7.04336 62.2195 6.85299 61.7231 6.47227 61.3922C6.66263 60.3994 6.85299 59.7375 7.04335 58.9929C7.89997 58.5792 8.94695 58.7447 9.89876 58.7447C16.2758 58.8274 17.9891 58.9102 19.9879 59.4893C20.3686 61.8886 20.559 64.2879 20.559 66.7699C20.4638 67.4317 20.3686 68.0936 20.3686 68.7555C20.0831 70.4102 20.0831 72.1476 20.2734 73.885C20.2734 74.2159 20.2734 74.5468 20.2734 74.8778C20.0831 78.2699 20.2734 81.6619 21.1301 84.9713C20.6542 85.4677 20.4638 85.9641 20.1782 86.4605Z" fill="black"/>
<path d="M86.3286 38.8884L84.8057 39.7157C83.8539 39.3848 82.9973 38.8884 82.2358 38.2265C82.331 37.9783 82.4262 37.8129 82.5214 37.5647C82.7117 37.5647 82.9021 37.4819 82.9973 37.4819C84.1395 37.8956 85.1864 38.392 86.3286 38.8884Z" fill="black"/>
<path d="M21.7568 52.1805C21.6616 53.0906 20.9002 53.9179 19.8532 54.1661C19.758 53.9179 19.6628 53.6697 19.6628 53.4215C19.758 52.9251 20.2339 52.5114 20.7098 52.2632C21.0906 52.1805 21.3761 52.0978 21.7568 52.1805Z" fill="black"/>
<path d="M11.6119 49.313L12.3733 50.2231C12.0878 50.8849 11.6118 50.9677 11.0408 50.8022C10.4697 50.1403 10.7552 49.7267 11.6119 49.313Z" fill="black"/>
<path d="M82.9909 34.5034C82.6102 34.5861 82.1343 34.7516 81.7536 34.8343C81.3729 34.917 80.897 34.917 80.2307 34.917C80.897 34.2552 82.0391 34.0897 82.9909 34.5034Z" fill="black"/>
<path d="M3.99739 50.554C3.61667 51.1332 3.23595 50.9677 2.85522 50.6368L3.04558 50.0576L3.99739 50.554Z" fill="black"/>
<path d="M61.962 60.0682C59.5824 60.5646 59.4873 60.5646 58.7258 58.91L59.3921 57.7517C59.9632 57.4207 60.7246 57.338 61.3909 57.5862C62.1523 57.9171 62.2475 58.6617 62.533 59.2409L61.962 60.0682Z" fill="black"/>
<path d="M60.2488 68.5899C60.4391 68.259 60.5343 68.0935 60.6295 67.928C60.7247 67.7626 60.915 67.5971 61.1054 67.4316L62.0572 68.0935C61.962 68.7554 61.4861 68.9208 60.7247 69.0036L60.2488 68.5899Z" fill="black"/>
<path d="M61.2007 74.9604L61.9622 75.2914C62.0573 75.7878 62.0573 75.8705 61.0104 76.2015C60.9152 76.036 60.6296 75.8705 60.6296 75.7878C60.82 75.4569 61.0104 75.2087 61.2007 74.9604Z" fill="black"/>
<path d="M75.9537 26.892C75.573 28.2985 74.7163 28.9603 72.2416 29.8704C71.5754 29.7049 70.8139 29.5395 70.1477 29.4567C68.2441 29.1258 67.1971 27.9675 66.4357 26.5611C66.2453 26.2301 66.2453 25.7337 66.5308 25.4028C66.8164 24.9891 67.1971 24.9064 67.8634 25.0718L70.9091 27.4711L72.7176 27.3057C73.3838 26.5611 73.9549 25.8164 74.6212 25.1546H75.8585C76.0489 25.651 76.1441 26.3129 75.9537 26.892Z" fill="black"/>
<path d="M76.0491 21.4317C75.5732 21.9281 74.7165 21.9281 74.2406 21.5144C74.0503 21.3489 73.9551 21.2662 73.8599 21.018C73.5744 20.3561 73.5744 19.6942 73.8599 19.0324C74.1454 18.7842 74.5262 18.6187 74.9069 18.4532C75.5732 18.205 76.3346 18.3705 76.7153 18.9496C76.8105 19.1151 76.9057 19.2806 76.8105 19.5288C77.0009 20.1907 76.7153 20.9353 76.0491 21.4317Z" fill="black"/>
<path d="M68.9106 21.7627L67.5781 21.8455C66.8166 21.1009 66.5311 20.0253 66.9118 19.0325L68.2443 18.5361L69.3865 19.5289C69.672 20.2735 69.4817 21.1009 68.9106 21.7627Z" fill="black"/>
<path d="M13.7056 68.59L12.5634 67.9282H11.5165C10.4695 67.4318 9.80322 66.439 9.80322 65.3634C9.80322 64.1224 10.755 62.9641 12.1827 62.4677C14.6574 61.7231 15.0381 61.8886 17.0369 64.1224C17.0369 64.867 17.1321 65.7771 17.1321 66.5217C16.4659 67.68 15.2285 68.5073 13.7056 68.59ZM12.0875 64.4533C11.802 65.1979 11.8972 65.7771 12.4683 66.108C12.9442 66.439 13.7056 66.439 14.0863 66.0253C14.0863 66.0253 14.0863 66.0253 14.1815 65.9426C14.1815 65.6944 14.1815 65.3634 14.1815 65.1152C13.7056 64.6188 12.849 64.3706 12.0875 64.4533Z" fill="#FD5444"/>
<path d="M55 14.6537L55.4332 34.7549L64.0965 35L86.1015 29.7704L90 29.1984L88.9604 26.0934L83.4158 21.7626L88.9604 16.4514L85.3218 14H67.302L55 14.6537Z" fill="#FD5444"/>
<path d="M53.301 37.3164C53.4914 37.5646 53.5866 37.8955 53.7769 38.2265L53.301 37.3164Z" fill="black"/>
<path d="M54.443 40.9568C54.6334 42.5287 54.5382 44.1834 54.1575 45.7553V40.9568H54.443Z" fill="black"/>
<path d="M91.9889 29.5699C91.6355 28.0172 90.9288 26.628 89.8687 25.3204C88.9854 24.2581 87.9253 23.4409 86.6002 22.8688C85.8935 22.6237 85.3635 22.2151 84.9218 21.643C85.0101 21.3161 85.0985 21.071 85.2752 20.8258C85.9819 20.172 86.6886 19.5183 87.3953 18.9462C88.2786 18.129 89.6037 18.2108 90.6638 17.6387C91.1938 16.8215 91.1938 16.8215 91.1055 16.086C88.4553 14.2065 85.3635 12.9806 82.0067 12.7355C80.8583 12.572 79.6215 12.4903 78.4731 12.572C77.5898 12.7355 76.7064 12.4903 75.7346 12.6538C74.7629 12.8172 73.7912 12.8172 72.8195 12.8172C71.9361 12.8172 71.1411 12.8172 70.2577 12.8989C67.6076 13.0624 64.9574 13.3892 62.3073 13.5527C60.3638 13.6344 58.4204 13.7978 56.477 14.043C56.3003 14.043 56.1236 13.9613 55.7703 13.8796C55.6819 13.1441 55.9469 12.2452 54.6219 12C53.4735 12.1634 52.4134 12.6538 51.53 13.3892C51.3534 13.9613 51.265 14.5333 51.1767 15.1054C51.265 16.5763 50.8233 18.0473 51.1767 19.6C50.8233 23.5226 51.1767 27.4452 51.0883 31.286C51.0883 31.7763 51.1767 32.1849 51.265 32.6753C51.3534 33.0839 51.265 33.4925 51 33.8194C51.795 35.0452 52.4134 36.1892 52.7668 36.6796L52.5901 36.271C52.8551 34.6366 52.9434 33.0839 52.9434 31.4495C52.9434 30.714 53.0318 29.9785 53.1201 29.3247C53.2085 28.8344 53.2085 28.2624 53.2085 27.772C53.0318 25.729 53.0318 23.7677 53.2085 21.7247C53.2085 20.7441 53.2085 19.7634 53.0318 18.8645C53.0318 18.7011 53.0318 18.4559 53.0318 18.2925C53.2085 17.0667 53.2968 15.8409 53.4735 14.6151L53.8268 14.5333C54.1802 16.7398 53.7385 18.9462 53.8268 21.071C53.9152 23.1957 53.8268 25.3204 53.9152 27.5269C54.0035 29.7333 54.0035 31.9398 54.0918 34.1462C54.1802 36.3527 54.3569 38.3957 54.6219 40.5204C54.6219 40.5204 54.6219 40.5204 54.6219 40.6022L54.7102 40.7656H54.6219C54.5335 41.3376 54.4452 41.9097 54.4452 42.4817C54.5335 43.9527 54.7102 45.3419 54.7985 46.7312C54.7985 47.7118 54.7102 48.7742 54.6219 49.8366H53.8268L57.007 50H56.5653C56.5653 49.5097 56.477 49.1828 56.477 48.7742C56.5653 47.6301 56.5653 46.4043 56.477 45.2602C56.2119 43.0538 56.1236 40.8473 56.1236 38.6409C56.1236 37.7419 56.1236 36.843 56.1236 35.9441C56.5653 35.6172 57.1837 35.6172 57.7137 35.7806C58.5087 35.8624 59.2154 36.0258 60.0105 36.0258C62.749 36.1892 65.4874 36.0258 68.2259 35.6172C70.6994 35.2903 73.0845 34.7183 75.3813 33.9828C78.1198 33.0839 80.7699 32.1849 83.5084 31.286C84.0384 31.1226 84.5684 31.0409 85.1868 30.9591C86.2469 30.8774 87.3069 30.7957 88.4553 30.714C89.2504 31.0409 90.0454 31.286 90.8404 31.3677C91.6355 30.7957 92.0772 30.3054 91.9889 29.5699ZM88.7203 28.3441C87.3069 28.2624 85.8935 28.3441 84.4801 28.5075C84.2151 28.5075 83.9501 28.5892 83.6851 28.671C81.7416 29.243 79.7982 29.8968 77.8548 30.4688C76.618 30.7957 75.4696 31.2043 74.2329 31.5312C74.0562 31.5312 73.7912 31.6129 73.6145 31.6946C71.4061 32.757 69.021 32.8387 66.7242 33.2473C63.8974 33.7376 60.9822 33.8194 58.067 33.4108C57.4487 33.4108 56.742 33.4108 56.1236 33.4108C55.9469 32.6753 55.7703 32.0215 55.7703 31.286C55.7703 28.0172 55.5052 24.7484 55.5936 21.4796C55.5936 20.7441 55.4169 19.9269 55.4169 19.1914C55.4169 18.4559 55.5052 17.7204 55.5052 17.0667C55.5052 16.7398 55.5936 16.4129 55.5936 16.0043C56.742 15.8409 57.802 15.514 58.9504 15.7591C59.3038 15.8409 59.6571 15.7591 60.0105 15.6774C62.1306 15.4323 64.1624 15.2688 66.2825 15.1054C70.4344 14.7785 74.5863 14.6968 78.7381 14.6151C81.3 14.6151 83.9501 14.9419 86.4236 15.6774C86.7769 15.8409 87.1303 15.9226 87.4836 16.1677C87.0419 16.6581 86.5119 17.1484 85.8935 17.4753C85.4518 17.8839 84.9218 18.2108 84.4801 18.6194C84.0384 19.028 83.5084 19.6 82.9784 20.172C82.89 20.9075 82.89 21.5613 82.8017 22.2151C83.3317 23.2774 84.2151 24.1763 85.3635 24.6667C86.4236 25.0753 87.3953 25.729 88.1903 26.5462C88.632 27.0366 88.9854 27.6086 89.2504 28.1806C88.897 28.2624 88.8087 28.3441 88.7203 28.3441Z" fill="#FD5444"/>
<path d="M89 28.4433C88.8272 28.5248 88.6545 28.6877 88.5681 28.6877C87.1859 28.6063 85.8037 28.6877 84.4215 28.8507C84.1623 28.8507 83.9031 28.9322 83.644 29.0136C81.7435 29.584 79.8429 30.2358 77.9424 30.8061C76.733 31.132 75.61 31.5394 74.4005 31.8653C74.2278 31.8653 73.9686 31.9467 73.7958 32.0282C71.6361 33.0874 69.3037 33.1688 67.0576 33.5762C64.2932 34.0651 61.4424 34.1465 58.5916 33.7392C57.9869 33.7392 57.2958 33.7392 56.6911 33.7392C56.5183 33.0059 56.3456 32.3541 56.3456 31.6208C56.3456 28.3618 56.0864 25.1029 56.1728 21.8439C56.1728 21.1106 56 20.2959 56 19.5626C56 18.8293 56.0864 18.096 56.0864 17.4442C56.0864 17.1183 56.1728 16.7924 56.1728 16.3851C57.2958 16.2221 58.3325 15.8962 59.4555 16.1406C59.801 16.2221 60.1466 16.1406 60.4921 16.0592C62.5654 15.8147 64.5524 15.6518 66.6257 15.4888C70.6859 15.1629 74.7461 15.0815 78.8063 15C81.3115 15 83.9031 15.3259 86.322 16.0592C86.6675 16.2221 87.0131 16.3036 87.3586 16.548C86.9267 17.0369 86.4084 17.5257 85.8037 17.8516C85.3717 18.259 84.8534 18.5849 84.4215 18.9923C83.9895 19.3996 83.4712 19.97 82.9529 20.5403C82.8665 21.2735 82.8665 21.9253 82.7801 22.5771C83.2984 23.6363 84.1623 24.5325 85.2854 25.0214C86.322 25.4288 87.2723 26.0806 88.0497 26.8953C88.3953 27.3027 88.7408 27.873 89 28.4433Z" fill="#FD5444"/>
<path d="M67.4826 21.8455C66.7212 21.1009 66.4356 20.0253 66.8163 19.0325L68.1489 18.5361L69.291 19.5289C69.5766 20.2735 69.3862 21.1836 68.8151 21.7627L67.4826 21.8455Z" fill="black"/>
<path d="M75.7633 25.1546C76.144 25.7337 76.2392 26.3129 75.9537 26.9747C75.573 28.3812 74.7163 29.0431 72.2416 29.9532C71.5754 29.7877 70.8139 29.6222 70.1477 29.5395C68.2441 29.2086 67.1971 28.0503 66.4357 26.6438C66.2453 26.3129 66.2453 25.8165 66.5308 25.4855C66.8164 25.0719 67.1971 24.9891 67.8634 25.1546L70.9091 27.5539L72.7176 27.3884C73.3838 26.6438 73.9549 25.8992 74.6212 25.2373H75.7633V25.1546Z" fill="black"/>
<path d="M76.8105 19.5289C76.9057 20.2735 76.6201 20.9353 76.0491 21.4317C75.5732 21.9281 74.7165 21.9281 74.2406 21.5145C74.0503 21.349 73.9551 21.2663 73.8599 21.0181C73.5744 20.3562 73.5744 19.6943 73.8599 19.0325C74.1454 18.7843 74.5262 18.6188 74.9069 18.4533C75.5732 18.2051 76.3346 18.4533 76.6201 18.9497C76.8105 19.1152 76.8105 19.3634 76.8105 19.5289Z" fill="black"/>
</svg>
